<svg width="1440" height="1024" viewBox="0 0 1440 1024" fill="none" xmlns="http://www.w3.org/2000/svg">
<g clip-path="url(#clip0_20_306)">
<rect width="1440" height="1024" fill="#37474F"/>
<g filter="url(#filter0_bii_20_306)">
<rect y="1" width="656" height="1089" rx="50" fill="#98DAD9" fill-opacity="0.3"/>
</g>
<path d="M1035.53 1024C1252.29 1024 1428.01 1012.8 1428.01 998.987C1428.01 985.173 1252.29 973.975 1035.53 973.975C818.769 973.975 643.049 985.173 643.049 998.987C643.049 1012.8 818.769 1024 1035.53 1024Z" fill="#98DAD9"/>
<path opacity="0.8" d="M1035.53 1024C1252.29 1024 1428.01 1012.8 1428.01 998.987C1428.01 985.173 1252.29 973.975 1035.53 973.975C818.769 973.975 643.049 985.173 643.049 998.987C643.049 1012.8 818.769 1024 1035.53 1024Z" fill="white"/>
<path d="M1330.46 47.8663H935.823C908.577 47.8663 886.49 70.4609 886.49 98.3327V950.625C886.49 978.497 908.577 1001.09 935.823 1001.09H1330.46C1357.71 1001.09 1379.8 978.497 1379.8 950.625V98.3327C1379.8 70.4609 1357.71 47.8663 1330.46 47.8663Z" fill="#263238"/>
<path d="M1357.86 152.539H908.402V896.419H1357.86V152.539Z" fill="white" stroke="#263238" stroke-width="1.33739" stroke-miterlimit="10"/>
<path d="M1202.03 453.758C1240.08 414.838 1240.08 351.737 1202.03 312.817C1163.98 273.897 1102.3 273.897 1064.25 312.817C1026.21 351.737 1026.21 414.838 1064.25 453.758C1102.3 492.677 1163.98 492.677 1202.03 453.758Z" fill="#98DAD9"/>
<path d="M1261.05 849.641H1005.27C1004.69 849.644 1004.12 849.531 1003.59 849.308C1003.05 849.085 1002.57 848.757 1002.16 848.341C1001.75 847.926 1001.43 847.433 1001.21 846.889C1000.99 846.345 1000.87 845.762 1000.87 845.173C1000.87 844.582 1000.98 843.996 1001.2 843.45C1001.42 842.903 1001.74 842.406 1002.15 841.988C1002.56 841.57 1003.05 841.239 1003.58 841.015C1004.11 840.79 1004.69 840.676 1005.27 840.68H1261.05C1261.62 840.68 1262.19 840.796 1262.72 841.022C1263.25 841.248 1263.74 841.58 1264.14 841.997C1264.55 842.415 1264.87 842.911 1265.09 843.456C1265.31 844.001 1265.42 844.584 1265.41 845.173C1265.41 846.358 1264.95 847.494 1264.13 848.332C1263.31 849.17 1262.2 849.641 1261.05 849.641Z" fill="#98DAD9"/>
<path d="M1269.37 538.972H996.912C991.289 538.972 986.731 543.635 986.731 549.388V582.244C986.731 587.996 991.289 592.659 996.912 592.659H1269.37C1275 592.659 1279.56 587.996 1279.56 582.244V549.388C1279.56 543.635 1275 538.972 1269.37 538.972Z" fill="#98DAD9"/>
<path d="M1269.37 639.386H996.912C991.289 639.386 986.731 644.049 986.731 649.801V682.657C986.731 688.41 991.289 693.073 996.912 693.073H1269.37C1275 693.073 1279.56 688.41 1279.56 682.657V649.801C1279.56 644.049 1275 639.386 1269.37 639.386Z" fill="#98DAD9"/>
<path d="M1181.65 433L1152.99 416.118V402.17C1157.14 397.033 1160.14 391.032 1161.8 384.586C1162.78 384.944 1163.82 385.129 1164.87 385.131C1168.42 385.131 1170.68 373.859 1171.06 365.807C1175.2 356.846 1169.57 351.6 1169.57 351.6C1169.57 351.6 1171.9 349.21 1173.45 339.626C1175 330.042 1167.99 334.042 1162.53 325.263C1157.07 316.484 1153.16 306.925 1135.24 306.925C1130.3 306.759 1125.42 308.117 1121.25 310.822C1117.07 313.527 1113.79 317.455 1111.83 322.094C1107.37 322.11 1102.92 322.642 1098.57 323.678C1093.09 325.263 1091.54 343.626 1096.21 350.82C1098.3 354.752 1099.42 359.149 1099.46 363.625C1098.22 362.067 1096.92 361.651 1096.21 365.184C1094.66 373.158 1100.91 384.326 1100.91 384.326L1104.13 383.391C1105.76 390.28 1108.89 396.702 1113.3 402.17V416.118L1084.64 433C1081.29 434.978 1078.51 437.821 1076.57 441.244C1074.64 444.668 1073.62 448.552 1073.62 452.506V462.169C1090.66 475.642 1111.6 482.95 1133.14 482.95C1154.69 482.95 1175.62 475.642 1192.67 462.169V452.506C1192.67 448.551 1191.65 444.665 1189.72 441.24C1187.79 437.816 1185 434.974 1181.65 433Z" fill="#263238"/>
<path d="M1052.43 675C1051.96 674.993 1051.51 674.804 1051.18 674.471C1051 674.311 1050.85 674.114 1050.76 673.894C1050.66 673.674 1050.61 673.436 1050.61 673.195C1050.62 672.866 1050.71 672.545 1050.89 672.265L1054.16 667.013L1047.77 667.214C1047.53 667.229 1047.29 667.193 1047.06 667.108C1046.84 667.023 1046.63 666.892 1046.46 666.722C1046.16 666.388 1046 665.956 1046 665.509C1046 665.062 1046.16 664.63 1046.46 664.297C1046.63 664.12 1046.83 663.983 1047.06 663.895C1047.29 663.807 1047.53 663.77 1047.77 663.786L1054.07 664.023L1050.83 658.79C1050.65 658.505 1050.56 658.177 1050.56 657.842C1050.56 657.601 1050.61 657.363 1050.7 657.143C1050.8 656.923 1050.94 656.726 1051.12 656.565C1051.46 656.233 1051.91 656.043 1052.38 656.037C1052.69 656.039 1052.99 656.129 1053.25 656.297C1053.51 656.464 1053.72 656.703 1053.85 656.985L1056.97 662.619L1060.04 657.021C1060.19 656.722 1060.41 656.469 1060.69 656.289C1060.97 656.109 1061.3 656.009 1061.63 656C1061.86 656.001 1062.08 656.051 1062.29 656.145C1062.5 656.239 1062.69 656.376 1062.85 656.547C1063.18 656.894 1063.36 657.36 1063.36 657.842C1063.36 658.155 1063.27 658.463 1063.12 658.735L1059.82 664.023L1066.22 663.786C1066.46 663.77 1066.7 663.807 1066.93 663.895C1067.15 663.983 1067.36 664.12 1067.53 664.297C1067.84 664.619 1068.01 665.052 1068 665.5C1068 665.952 1067.83 666.387 1067.53 666.722C1067.35 666.892 1067.15 667.023 1066.92 667.108C1066.7 667.193 1066.46 667.229 1066.22 667.214L1059.79 667.013L1062.99 672.21C1063.17 672.5 1063.27 672.835 1063.27 673.177C1063.27 673.66 1063.07 674.124 1062.73 674.466C1062.39 674.808 1061.93 675 1061.45 675C1061.13 674.996 1060.83 674.9 1060.57 674.725C1060.31 674.551 1060.11 674.304 1059.99 674.015L1056.95 668.545L1053.93 674.015C1053.79 674.301 1053.58 674.545 1053.32 674.718C1053.05 674.892 1052.75 674.99 1052.43 675Z" fill="#263238"/>
<path d="M1082.45 675.962C1081.98 675.955 1081.53 675.755 1081.2 675.406C1081.02 675.238 1080.88 675.031 1080.78 674.8C1080.68 674.568 1080.63 674.318 1080.63 674.065C1080.64 673.72 1080.73 673.382 1080.91 673.088L1084.18 667.571L1077.81 667.782C1077.57 667.793 1077.33 667.754 1077.1 667.665C1076.87 667.576 1076.66 667.44 1076.49 667.264C1076.25 667.002 1076.08 666.669 1076.03 666.309C1075.97 665.949 1076.01 665.579 1076.15 665.246C1076.3 664.913 1076.53 664.634 1076.83 664.444C1077.12 664.254 1077.47 664.162 1077.81 664.18L1084.09 664.429L1080.85 658.931C1080.68 658.632 1080.58 658.287 1080.58 657.935C1080.58 657.682 1080.63 657.432 1080.72 657.2C1080.82 656.969 1080.96 656.762 1081.14 656.594C1081.48 656.245 1081.93 656.045 1082.4 656.038C1082.71 656.04 1083.01 656.135 1083.27 656.312C1083.53 656.488 1083.74 656.739 1083.87 657.035L1086.98 662.954L1090.05 657.073C1090.2 656.759 1090.42 656.493 1090.7 656.304C1090.98 656.115 1091.3 656.01 1091.64 656C1091.87 655.999 1092.09 656.05 1092.3 656.149C1092.51 656.248 1092.7 656.393 1092.85 656.575C1093.02 656.754 1093.16 656.966 1093.25 657.199C1093.34 657.433 1093.38 657.683 1093.38 657.935C1093.37 658.266 1093.29 658.589 1093.13 658.874L1089.83 664.429L1096.24 664.218C1096.48 664.201 1096.72 664.241 1096.94 664.333C1097.16 664.426 1097.36 664.57 1097.53 664.755C1097.84 665.094 1098.01 665.548 1098 666.019C1098 666.494 1097.83 666.951 1097.53 667.303C1097.36 667.481 1097.16 667.619 1096.93 667.708C1096.71 667.797 1096.47 667.836 1096.24 667.82L1089.8 667.609L1093 673.069C1093.18 673.374 1093.27 673.726 1093.27 674.084C1093.27 674.592 1093.08 675.08 1092.74 675.439C1092.4 675.798 1091.94 676 1091.45 676C1091.14 675.996 1090.84 675.895 1090.58 675.712C1090.32 675.528 1090.12 675.268 1090 674.966L1086.96 669.218L1083.94 674.966C1083.8 675.259 1083.59 675.507 1083.33 675.682C1083.07 675.858 1082.76 675.954 1082.45 675.962Z" fill="#263238"/>
<path d="M1112.73 675C1112.24 674.998 1111.76 674.808 1111.41 674.471C1111.22 674.311 1111.07 674.114 1110.97 673.894C1110.87 673.674 1110.81 673.435 1110.82 673.195C1110.82 672.866 1110.92 672.544 1111.1 672.265L1114.52 667.013L1107.87 667.214C1107.52 667.228 1107.16 667.139 1106.86 666.959C1106.55 666.778 1106.31 666.515 1106.16 666.202C1106.01 665.889 1105.97 665.541 1106.02 665.202C1106.08 664.862 1106.24 664.547 1106.49 664.297C1106.67 664.121 1106.89 663.984 1107.12 663.896C1107.36 663.808 1107.62 663.771 1107.87 663.786L1114.42 664.023L1111.04 658.79C1110.86 658.505 1110.76 658.177 1110.76 657.842C1110.77 657.602 1110.82 657.366 1110.92 657.147C1111.02 656.928 1111.17 656.73 1111.35 656.565C1111.7 656.228 1112.18 656.039 1112.68 656.037C1113 656.042 1113.31 656.134 1113.58 656.301C1113.85 656.469 1114.06 656.706 1114.19 656.985L1117.44 662.619L1120.65 657.021C1120.8 656.722 1121.03 656.469 1121.33 656.289C1121.62 656.11 1121.95 656.009 1122.3 656C1122.54 655.999 1122.78 656.047 1123 656.142C1123.22 656.236 1123.41 656.374 1123.57 656.547C1123.75 656.717 1123.89 656.919 1123.98 657.142C1124.07 657.364 1124.12 657.602 1124.12 657.842C1124.11 658.157 1124.02 658.464 1123.86 658.735L1120.42 664.023L1127.1 663.786C1127.35 663.762 1127.59 663.79 1127.83 663.866C1128.06 663.942 1128.28 664.066 1128.46 664.228C1128.64 664.39 1128.78 664.588 1128.87 664.807C1128.96 665.027 1129.01 665.263 1129 665.5C1129 665.95 1128.83 666.385 1128.52 666.722C1128.35 666.892 1128.13 667.023 1127.9 667.108C1127.66 667.193 1127.41 667.229 1127.16 667.214L1120.46 667.013L1123.78 672.21C1123.97 672.5 1124.07 672.835 1124.06 673.177C1124.06 673.416 1124 673.652 1123.9 673.871C1123.8 674.09 1123.66 674.288 1123.48 674.453C1123.31 674.624 1123.11 674.76 1122.89 674.854C1122.67 674.948 1122.43 674.998 1122.19 675C1121.86 674.995 1121.55 674.898 1121.28 674.723C1121.02 674.548 1120.81 674.302 1120.69 674.015L1117.5 668.545L1114.35 674.015C1114.2 674.311 1113.98 674.561 1113.69 674.736C1113.4 674.91 1113.07 675.002 1112.73 675Z" fill="#263238"/>
<path d="M1142.72 674.999C1142.22 674.997 1141.74 674.807 1141.39 674.471C1141.03 674.134 1140.83 673.675 1140.82 673.194C1140.81 672.866 1140.91 672.543 1141.09 672.264L1144.5 667.013L1137.86 667.214C1137.61 667.225 1137.36 667.187 1137.12 667.102C1136.88 667.018 1136.66 666.888 1136.48 666.721C1136.17 666.387 1136 665.956 1136 665.509C1136 665.062 1136.17 664.63 1136.48 664.296C1136.66 664.126 1136.88 663.993 1137.12 663.906C1137.36 663.818 1137.61 663.777 1137.86 663.786L1144.42 664.023L1141.07 658.79C1140.88 658.505 1140.79 658.177 1140.78 657.842C1140.79 657.602 1140.84 657.366 1140.94 657.147C1141.05 656.928 1141.19 656.73 1141.37 656.565C1141.72 656.228 1142.2 656.039 1142.7 656.037C1143.02 656.039 1143.34 656.129 1143.61 656.297C1143.88 656.464 1144.1 656.703 1144.23 656.985L1147.45 662.619L1150.66 657.021C1150.81 656.722 1151.04 656.469 1151.34 656.289C1151.63 656.11 1151.96 656.009 1152.31 656C1152.55 655.999 1152.78 656.047 1153 656.142C1153.22 656.236 1153.42 656.374 1153.58 656.547C1153.75 656.717 1153.89 656.919 1153.99 657.142C1154.08 657.364 1154.13 657.602 1154.13 657.842C1154.12 658.156 1154.03 658.464 1153.86 658.735L1150.43 664.023L1157.1 663.786C1157.35 663.762 1157.6 663.789 1157.83 663.866C1158.06 663.942 1158.28 664.065 1158.46 664.228C1158.64 664.39 1158.78 664.588 1158.87 664.807C1158.96 665.027 1159.01 665.263 1159 665.5C1159 665.949 1158.83 666.384 1158.52 666.721C1158.35 666.891 1158.13 667.023 1157.9 667.108C1157.66 667.193 1157.41 667.229 1157.16 667.214L1150.47 667.013L1153.79 672.21C1153.97 672.5 1154.07 672.835 1154.07 673.176C1154.07 673.417 1154.02 673.655 1153.92 673.875C1153.82 674.095 1153.67 674.292 1153.48 674.452C1153.32 674.623 1153.12 674.76 1152.9 674.854C1152.68 674.948 1152.44 674.997 1152.19 674.999C1151.87 674.994 1151.56 674.898 1151.29 674.723C1151.03 674.548 1150.82 674.302 1150.7 674.015L1147.51 668.545L1144.37 674.015C1144.22 674.316 1143.99 674.57 1143.69 674.745C1143.4 674.92 1143.06 675.008 1142.72 674.999Z" fill="#263238"/>
<path d="M1172.73 675C1172.23 674.998 1171.75 674.808 1171.4 674.471C1171.1 674.185 1170.92 673.814 1170.87 673.415C1170.81 673.015 1170.9 672.611 1171.11 672.265L1174.51 667.013L1167.87 667.214C1167.61 667.225 1167.36 667.187 1167.12 667.103C1166.88 667.018 1166.67 666.889 1166.48 666.722C1166.17 666.388 1166 665.956 1166 665.509C1166 665.062 1166.17 664.63 1166.48 664.297C1166.66 664.126 1166.88 663.993 1167.12 663.906C1167.36 663.818 1167.61 663.777 1167.87 663.786L1174.44 664.023L1171.06 658.79C1170.87 658.505 1170.77 658.177 1170.77 657.842C1170.78 657.361 1170.98 656.902 1171.34 656.565C1171.69 656.228 1172.17 656.039 1172.67 656.037C1172.99 656.039 1173.31 656.129 1173.58 656.297C1173.85 656.464 1174.07 656.703 1174.21 656.985L1177.44 662.619L1180.64 657.021C1180.8 656.722 1181.03 656.469 1181.32 656.289C1181.61 656.11 1181.95 656.009 1182.3 656C1182.54 655.999 1182.78 656.047 1183 656.141C1183.23 656.235 1183.42 656.374 1183.59 656.547C1183.94 656.894 1184.13 657.36 1184.12 657.842C1184.11 658.157 1184.02 658.464 1183.85 658.735L1180.42 664.023L1187.1 663.786C1187.35 663.762 1187.59 663.79 1187.83 663.866C1188.06 663.942 1188.28 664.066 1188.46 664.228C1188.64 664.39 1188.78 664.588 1188.87 664.807C1188.96 665.027 1189.01 665.263 1189 665.5C1189 665.95 1188.83 666.385 1188.52 666.722C1188.35 666.892 1188.13 667.023 1187.9 667.108C1187.66 667.193 1187.41 667.229 1187.16 667.214L1180.45 667.013L1183.78 672.21C1183.96 672.5 1184.06 672.835 1184.06 673.177C1184.06 673.417 1184.01 673.656 1183.91 673.876C1183.81 674.096 1183.66 674.292 1183.47 674.453C1183.31 674.624 1183.11 674.76 1182.89 674.854C1182.66 674.948 1182.43 674.998 1182.18 675C1181.86 674.995 1181.55 674.898 1181.28 674.723C1181.01 674.548 1180.81 674.302 1180.68 674.015L1177.49 668.545L1174.34 674.015C1174.2 674.311 1173.97 674.561 1173.68 674.736C1173.4 674.91 1173.07 675.002 1172.73 675Z" fill="#263238"/>
<path d="M1203.47 675C1203 674.993 1202.55 674.804 1202.22 674.471C1202.04 674.311 1201.9 674.114 1201.8 673.894C1201.7 673.674 1201.65 673.436 1201.65 673.195C1201.66 672.866 1201.75 672.545 1201.93 672.265L1205.18 667.013L1198.82 667.214C1198.58 667.232 1198.35 667.2 1198.13 667.122C1197.91 667.044 1197.7 666.92 1197.53 666.759C1197.36 666.597 1197.23 666.402 1197.13 666.186C1197.04 665.969 1197 665.735 1197 665.5C1197 665.277 1197.04 665.056 1197.13 664.849C1197.21 664.643 1197.33 664.455 1197.49 664.297C1197.66 664.12 1197.86 663.983 1198.09 663.895C1198.32 663.807 1198.56 663.77 1198.8 663.786L1205.09 664.023L1201.85 658.79C1201.68 658.505 1201.58 658.177 1201.58 657.842C1201.59 657.361 1201.78 656.902 1202.13 656.565C1202.47 656.228 1202.92 656.039 1203.4 656.037C1203.71 656.039 1204.01 656.129 1204.27 656.297C1204.53 656.464 1204.74 656.703 1204.87 656.985L1207.96 662.619L1211.05 657.021C1211.2 656.725 1211.42 656.474 1211.7 656.294C1211.97 656.114 1212.29 656.013 1212.62 656C1212.85 655.999 1213.08 656.047 1213.29 656.141C1213.51 656.235 1213.7 656.374 1213.85 656.547C1214.19 656.894 1214.37 657.36 1214.36 657.842C1214.36 658.155 1214.28 658.463 1214.13 658.735L1210.84 664.023L1217.22 663.786C1217.46 663.77 1217.7 663.807 1217.93 663.895C1218.16 663.983 1218.36 664.12 1218.53 664.297C1218.84 664.619 1219.01 665.052 1219 665.5C1219 665.952 1218.83 666.387 1218.53 666.722C1218.36 666.892 1218.15 667.023 1217.93 667.108C1217.7 667.193 1217.46 667.229 1217.22 667.214L1210.8 667.013L1213.98 672.21C1214.16 672.5 1214.26 672.835 1214.25 673.177C1214.25 673.658 1214.05 674.116 1213.71 674.453C1213.38 674.792 1212.93 674.988 1212.45 675C1212.15 674.995 1211.84 674.898 1211.59 674.723C1211.33 674.548 1211.14 674.302 1211.02 674.015L1207.96 668.545L1204.95 674.015C1204.81 674.3 1204.61 674.543 1204.35 674.716C1204.09 674.89 1203.78 674.988 1203.47 675Z" fill="#263238"/>
<g style="mix-blend-mode:multiply">
<path d="M1357.86 153.526H908.402V182.331H1357.86V153.526Z" fill="#98DAD9"/>
</g>
<path d="M1182.01 100.462H1084.25C1082.49 100.462 1080.8 99.7455 1079.55 98.4693C1078.3 97.1932 1077.6 95.4623 1077.6 93.6574C1077.6 91.8526 1078.3 90.1218 1079.55 88.8456C1080.8 87.5694 1082.49 86.8524 1084.25 86.8524H1182.01C1183.77 86.8524 1185.46 87.5694 1186.71 88.8456C1187.96 90.1218 1188.66 91.8526 1188.66 93.6574C1188.66 95.4623 1187.96 97.1932 1186.71 98.4693C1185.46 99.7455 1183.77 100.462 1182.01 100.462Z" fill="#98DAD9" stroke="#263238" stroke-width="1.33739" stroke-linecap="round" stroke-linejoin="round"/>
<path d="M1159.79 938.443C1159.79 933.047 1158.23 927.771 1155.31 923.282C1152.38 918.793 1148.22 915.294 1143.34 913.226C1138.47 911.159 1133.11 910.617 1127.94 911.668C1122.76 912.72 1118.01 915.318 1114.28 919.133C1110.55 922.949 1108.01 927.811 1106.98 933.103C1105.95 938.396 1106.48 943.882 1108.5 948.866C1110.53 953.85 1113.95 958.11 1118.33 961.104C1122.72 964.099 1127.88 965.695 1133.16 965.69C1140.22 965.683 1146.99 962.81 1151.98 957.702C1156.97 952.594 1159.78 945.667 1159.79 938.443Z" fill="#98DAD9"/>
<path d="M1146.66 924.626H1119.65V952.261H1146.66V924.626Z" fill="#98DAD9" stroke="#263238" stroke-width="1.33739" stroke-linecap="round" stroke-linejoin="round"/>
<path d="M1454.95 624.84C1454.95 624.84 1419.56 532.842 1451.07 521.907C1483.87 510.505 1482.42 571.257 1481.15 600.867C1478.49 664.138 1471.66 675.904 1466.55 660.45L1454.95 624.84ZM1444.31 696.605C1454.04 709.591 1456.78 696.137 1439.23 635.385C1431.01 606.814 1413.13 549.024 1385.71 570.711C1359.38 591.49 1422.05 666.813 1422.05 666.813L1444.31 696.605ZM1425.52 749.331C1434.79 757.746 1434.97 747.123 1412.96 703.254C1402.62 682.709 1380.76 641.125 1362.86 661.696C1345.67 681.54 1404.25 729.773 1404.25 729.773L1425.52 749.331ZM1405.21 812.031C1414.48 820.472 1414.66 809.823 1392.64 765.98C1382.31 745.435 1360.45 703.825 1342.55 724.422C1325.46 744.318 1383.86 792.551 1383.86 792.551L1405.21 812.031ZM1463.86 684.397C1449.03 690.319 1460.82 696.76 1522.74 696.579C1551.79 696.579 1611.1 695.228 1598.46 662.216C1586.34 630.502 1498.14 670.891 1498.14 670.891L1463.86 684.397ZM1446.98 726.578C1431.29 729.357 1441.6 738.084 1502.33 750.5C1530.79 756.344 1589.16 767.123 1583.2 732.318C1577.48 698.76 1483.18 720.422 1483.18 720.422L1446.98 726.578ZM1428.09 778.083C1414.73 780.057 1423.26 787.668 1474.32 799.615C1498.27 805.226 1547.4 815.745 1543.13 786.057C1539.07 757.486 1458.84 773.642 1458.84 773.642L1428.09 778.083ZM1413.74 825.796C1400.67 829.199 1409.93 835.848 1461.98 842.186C1486.36 845.147 1536.3 850.289 1529.01 821.225C1521.98 793.33 1443.88 818.03 1443.88 818.03L1413.74 825.796ZM1490.27 632.632C1482.65 650.086 1498.47 647.437 1552.25 599.438C1577.43 576.919 1627.96 529.803 1587.94 506.349C1549.53 483.804 1508.22 592.581 1508.22 592.581L1490.27 632.632ZM1415.72 887.951C1407.67 892.756 1415.57 894.626 1452.49 887.094C1469.8 883.587 1505.02 875.795 1493.11 860.419C1481.59 845.614 1434.36 876.782 1434.36 876.782L1415.72 887.951Z" fill="#98DAD9"/>
<path opacity="0.3" d="M1454.95 624.84C1454.95 624.84 1419.56 532.842 1451.07 521.907C1483.87 510.505 1482.42 571.257 1481.15 600.867C1478.49 664.138 1471.66 675.904 1466.55 660.45L1454.95 624.84ZM1444.31 696.605C1454.04 709.591 1456.78 696.137 1439.23 635.385C1431.01 606.814 1413.13 549.024 1385.71 570.711C1359.38 591.49 1422.05 666.813 1422.05 666.813L1444.31 696.605ZM1425.52 749.331C1434.79 757.746 1434.97 747.123 1412.96 703.254C1402.62 682.709 1380.76 641.125 1362.86 661.696C1345.67 681.54 1404.25 729.773 1404.25 729.773L1425.52 749.331ZM1405.21 812.031C1414.48 820.472 1414.66 809.823 1392.64 765.98C1382.31 745.435 1360.45 703.825 1342.55 724.422C1325.46 744.318 1383.86 792.551 1383.86 792.551L1405.21 812.031ZM1463.86 684.397C1449.03 690.319 1460.82 696.76 1522.74 696.579C1551.79 696.579 1611.1 695.228 1598.46 662.216C1586.34 630.502 1498.14 670.891 1498.14 670.891L1463.86 684.397ZM1446.98 726.578C1431.29 729.357 1441.6 738.084 1502.33 750.5C1530.79 756.344 1589.16 767.123 1583.2 732.318C1577.48 698.76 1483.18 720.422 1483.18 720.422L1446.98 726.578ZM1428.09 778.083C1414.73 780.057 1423.26 787.668 1474.32 799.615C1498.27 805.226 1547.4 815.745 1543.13 786.057C1539.07 757.486 1458.84 773.642 1458.84 773.642L1428.09 778.083ZM1413.74 825.796C1400.67 829.199 1409.93 835.848 1461.98 842.186C1486.36 845.147 1536.3 850.289 1529.01 821.225C1521.98 793.33 1443.88 818.03 1443.88 818.03L1413.74 825.796ZM1490.27 632.632C1482.65 650.086 1498.47 647.437 1552.25 599.438C1577.43 576.919 1627.96 529.803 1587.94 506.349C1549.53 483.804 1508.22 592.581 1508.22 592.581L1490.27 632.632ZM1415.72 887.951C1407.67 892.756 1415.57 894.626 1452.49 887.094C1469.8 883.587 1505.02 875.795 1493.11 860.419C1481.59 845.614 1434.36 876.782 1434.36 876.782L1415.72 887.951Z" fill="white"/>
<path d="M1470.57 667.67L1464.4 562.66L1470.57 667.67ZM1451.04 702.319L1412.04 612.009L1451.04 702.319ZM1551.69 676.06L1458.23 689.774L1551.69 676.06ZM1430.83 750.993L1380.23 684.579L1430.83 750.993ZM1439.72 730.63L1509.44 734.214L1439.72 730.63ZM1423.21 781.564L1476.53 786.966L1423.21 781.564ZM1410.34 813.927L1383.86 773.174L1410.34 813.927ZM1407.29 828.316L1469.98 828.913L1407.29 828.316ZM1394.6 948.625C1395.02 948.592 1395.41 948.39 1395.68 948.064C1395.96 947.739 1396.1 947.315 1396.07 946.885C1392.08 885.639 1415.24 785.33 1452.39 702.994C1476.13 650.372 1569.18 546.946 1570.17 545.907C1570.47 545.6 1570.64 545.184 1570.64 544.751C1570.64 544.318 1570.47 543.902 1570.17 543.595C1570.03 543.444 1569.85 543.325 1569.66 543.243C1569.47 543.161 1569.26 543.119 1569.05 543.119C1568.85 543.119 1568.64 543.161 1568.45 543.243C1568.26 543.325 1568.08 543.444 1567.94 543.595C1567 544.634 1473.56 648.45 1449.62 701.54C1411.79 785.875 1388.94 884.367 1393 947.093C1393.03 947.506 1393.21 947.893 1393.51 948.176C1393.8 948.46 1394.19 948.62 1394.6 948.625ZM1470.54 669.281C1470.96 669.254 1471.35 669.059 1471.63 668.738C1471.91 668.417 1472.06 667.996 1472.04 667.566L1465.97 562.504C1465.96 562.29 1465.91 562.08 1465.82 561.887C1465.73 561.694 1465.6 561.52 1465.45 561.378C1465.29 561.235 1465.11 561.126 1464.91 561.056C1464.71 560.986 1464.5 560.957 1464.29 560.971C1463.87 560.998 1463.48 561.193 1463.2 561.514C1462.92 561.835 1462.78 562.256 1462.8 562.686L1468.97 667.696C1468.99 668.11 1469.16 668.5 1469.45 668.785C1469.75 669.07 1470.14 669.229 1470.54 669.229V669.281ZM1451.6 703.799C1451.98 703.623 1452.28 703.302 1452.43 702.904C1452.58 702.506 1452.57 702.063 1452.41 701.669L1413.39 611.36C1413.22 610.967 1412.9 610.659 1412.51 610.503C1412.12 610.347 1411.69 610.357 1411.31 610.529C1410.92 610.701 1410.62 611.022 1410.47 611.422C1410.32 611.821 1410.32 612.266 1410.49 612.659L1449.49 702.968C1449.61 703.258 1449.82 703.505 1450.07 703.681C1450.33 703.856 1450.63 703.951 1450.94 703.955C1451.2 703.969 1451.46 703.916 1451.7 703.799H1451.6ZM1458.35 691.332L1551.76 677.67C1551.99 677.665 1552.21 677.612 1552.41 677.513C1552.62 677.414 1552.8 677.272 1552.95 677.097C1553.09 676.921 1553.2 676.716 1553.27 676.495C1553.33 676.273 1553.35 676.041 1553.32 675.812C1553.28 675.583 1553.21 675.364 1553.09 675.168C1552.97 674.972 1552.81 674.804 1552.62 674.676C1552.43 674.547 1552.22 674.46 1552 674.421C1551.78 674.382 1551.55 674.392 1551.33 674.449L1457.92 688.111C1457.5 688.139 1457.11 688.335 1456.84 688.657C1456.56 688.978 1456.42 689.399 1456.45 689.826C1456.48 690.253 1456.67 690.651 1456.98 690.934C1457.3 691.216 1457.71 691.36 1458.12 691.332H1458.35ZM1431.72 752.292C1432.05 752.025 1432.27 751.636 1432.32 751.208C1432.37 750.78 1432.26 750.348 1432 750.006L1381.37 683.462C1381.11 683.118 1380.73 682.893 1380.31 682.837C1379.89 682.781 1379.46 682.898 1379.12 683.163C1378.79 683.429 1378.57 683.82 1378.51 684.251C1378.46 684.682 1378.57 685.118 1378.83 685.462L1429.56 752.11C1429.71 752.304 1429.9 752.461 1430.11 752.569C1430.33 752.677 1430.56 752.733 1430.8 752.733C1431.18 752.714 1431.54 752.558 1431.82 752.292H1431.72ZM1510.83 734.292C1510.85 733.862 1510.7 733.444 1510.41 733.129C1510.13 732.813 1509.73 732.624 1509.31 732.604L1439.72 728.994C1439.33 729.021 1438.96 729.195 1438.68 729.481C1438.41 729.768 1438.25 730.147 1438.23 730.548C1438.21 730.948 1438.34 731.342 1438.58 731.654C1438.83 731.966 1439.18 732.175 1439.56 732.24L1509.29 735.851C1509.71 735.865 1510.11 735.709 1510.42 735.418C1510.73 735.126 1510.92 734.722 1510.94 734.292H1510.83ZM1478.01 787.122C1478.03 786.908 1478.01 786.692 1477.95 786.485C1477.89 786.279 1477.8 786.086 1477.66 785.919C1477.53 785.752 1477.37 785.614 1477.18 785.513C1477 785.411 1476.79 785.349 1476.58 785.33L1423.26 779.953C1423.06 779.932 1422.85 779.953 1422.65 780.014C1422.45 780.076 1422.26 780.177 1422.1 780.313C1421.94 780.448 1421.81 780.614 1421.71 780.802C1421.62 780.99 1421.56 781.196 1421.54 781.408C1421.5 781.834 1421.63 782.257 1421.9 782.588C1422.16 782.918 1422.54 783.128 1422.96 783.174L1476.28 788.577H1476.43C1476.84 788.606 1477.24 788.47 1477.56 788.198C1477.87 787.926 1478.07 787.54 1478.11 787.122H1478.01ZM1411.1 815.277C1411.45 815.039 1411.7 814.667 1411.79 814.244C1411.87 813.82 1411.79 813.38 1411.56 813.018L1385.2 772.265C1384.96 771.914 1384.6 771.672 1384.19 771.59C1383.77 771.508 1383.35 771.591 1383 771.824C1382.64 772.062 1382.4 772.434 1382.31 772.857C1382.23 773.281 1382.31 773.721 1382.54 774.083L1408.89 814.836C1409.04 815.059 1409.24 815.241 1409.48 815.368C1409.71 815.494 1409.97 815.561 1410.24 815.563C1410.58 815.582 1410.92 815.481 1411.2 815.277H1411.1ZM1471.58 828.913C1471.57 828.486 1471.41 828.077 1471.11 827.773C1470.82 827.468 1470.42 827.29 1470.01 827.277L1407.32 826.68C1406.9 826.68 1406.5 826.849 1406.21 827.151C1405.91 827.453 1405.74 827.863 1405.74 828.29C1405.74 828.505 1405.77 828.718 1405.85 828.918C1405.93 829.118 1406.04 829.3 1406.19 829.454C1406.34 829.607 1406.51 829.727 1406.71 829.809C1406.9 829.89 1407.11 829.93 1407.32 829.926L1470.01 830.524C1470.22 830.534 1470.44 830.5 1470.64 830.425C1470.84 830.349 1471.02 830.232 1471.18 830.082C1471.34 829.932 1471.46 829.751 1471.55 829.55C1471.63 829.349 1471.68 829.133 1471.68 828.913H1471.58ZM1387.46 924.807C1387.59 924.522 1398.28 894.392 1430.42 887.198C1430.84 887.105 1431.2 886.847 1431.43 886.482C1431.66 886.117 1431.73 885.673 1431.64 885.25C1431.54 884.835 1431.28 884.476 1430.93 884.248C1430.58 884.021 1430.15 883.942 1429.74 884.029C1395.84 891.613 1384.59 923.431 1384.47 923.742C1384.34 924.152 1384.37 924.599 1384.55 924.986C1384.74 925.374 1385.06 925.673 1385.46 925.82H1385.97C1386.3 925.85 1386.64 925.768 1386.93 925.585C1387.22 925.403 1387.44 925.13 1387.57 924.807H1387.46ZM1394.6 948.625C1395.02 948.592 1395.41 948.39 1395.68 948.064C1395.96 947.739 1396.1 947.315 1396.07 946.885C1392.08 885.639 1415.24 785.33 1452.39 702.994C1476.13 650.372 1569.18 546.946 1570.17 545.907C1570.47 545.6 1570.64 545.184 1570.64 544.751C1570.64 544.318 1570.47 543.902 1570.17 543.595C1570.03 543.444 1569.85 543.325 1569.66 543.243C1569.47 543.161 1569.26 543.119 1569.05 543.119C1568.85 543.119 1568.64 543.161 1568.45 543.243C1568.26 543.325 1568.08 543.444 1567.94 543.595C1567 544.634 1473.56 648.45 1449.62 701.54C1411.79 785.875 1388.94 884.367 1393 947.093C1393.03 947.506 1393.21 947.893 1393.51 948.176C1393.8 948.46 1394.19 948.62 1394.6 948.625ZM1470.54 669.281C1470.96 669.254 1471.35 669.059 1471.63 668.738C1471.91 668.417 1472.06 667.996 1472.04 667.566L1465.97 562.504C1465.96 562.29 1465.91 562.08 1465.82 561.887C1465.73 561.694 1465.6 561.52 1465.45 561.378C1465.29 561.235 1465.11 561.126 1464.91 561.056C1464.71 560.986 1464.5 560.957 1464.29 560.971C1463.87 560.998 1463.48 561.193 1463.2 561.514C1462.92 561.835 1462.78 562.256 1462.8 562.686L1468.97 667.696C1468.99 668.11 1469.16 668.5 1469.45 668.785C1469.75 669.07 1470.14 669.229 1470.54 669.229V669.281ZM1451.6 703.799C1451.98 703.623 1452.28 703.302 1452.43 702.904C1452.58 702.506 1452.57 702.063 1452.41 701.669L1413.39 611.36C1413.22 610.967 1412.9 610.659 1412.51 610.503C1412.12 610.347 1411.69 610.357 1411.31 610.529C1410.92 610.701 1410.62 611.022 1410.47 611.422C1410.32 611.821 1410.32 612.266 1410.49 612.659L1449.49 702.968C1449.61 703.258 1449.82 703.505 1450.07 703.681C1450.33 703.856 1450.63 703.951 1450.94 703.955C1451.2 703.969 1451.46 703.916 1451.7 703.799H1451.6ZM1458.35 691.332L1551.76 677.67C1551.99 677.665 1552.21 677.612 1552.41 677.513C1552.62 677.414 1552.8 677.272 1552.95 677.097C1553.09 676.921 1553.2 676.716 1553.27 676.495C1553.33 676.273 1553.35 676.041 1553.32 675.812C1553.28 675.583 1553.21 675.364 1553.09 675.168C1552.97 674.972 1552.81 674.804 1552.62 674.676C1552.43 674.547 1552.22 674.46 1552 674.421C1551.78 674.382 1551.55 674.392 1551.33 674.449L1457.92 688.111C1457.5 688.139 1457.11 688.335 1456.84 688.657C1456.56 688.978 1456.42 689.399 1456.45 689.826C1456.48 690.253 1456.67 690.651 1456.98 690.934C1457.3 691.216 1457.71 691.36 1458.12 691.332H1458.35ZM1431.72 752.292C1432.05 752.025 1432.27 751.636 1432.32 751.208C1432.37 750.78 1432.26 750.348 1432 750.006L1381.37 683.462C1381.24 683.292 1381.08 683.149 1380.9 683.041C1380.72 682.934 1380.52 682.865 1380.31 682.837C1380.1 682.809 1379.89 682.824 1379.68 682.88C1379.48 682.936 1379.29 683.032 1379.12 683.163C1378.96 683.295 1378.82 683.458 1378.71 683.645C1378.61 683.832 1378.54 684.037 1378.51 684.251C1378.48 684.464 1378.5 684.681 1378.55 684.889C1378.61 685.097 1378.7 685.292 1378.83 685.462L1429.56 752.11C1429.71 752.304 1429.9 752.461 1430.11 752.569C1430.33 752.677 1430.56 752.733 1430.8 752.733C1431.18 752.714 1431.54 752.558 1431.82 752.292H1431.72ZM1510.83 734.292C1510.85 733.862 1510.7 733.444 1510.41 733.129C1510.13 732.813 1509.73 732.624 1509.31 732.604L1439.72 728.994C1439.33 729.021 1438.96 729.195 1438.68 729.481C1438.41 729.768 1438.25 730.147 1438.23 730.548C1438.21 730.948 1438.34 731.342 1438.58 731.654C1438.83 731.966 1439.18 732.175 1439.56 732.24L1509.29 735.851C1509.71 735.865 1510.11 735.709 1510.42 735.418C1510.73 735.126 1510.92 734.722 1510.94 734.292H1510.83ZM1478.01 787.122C1478.03 786.908 1478.01 786.692 1477.95 786.485C1477.89 786.279 1477.8 786.086 1477.66 785.919C1477.53 785.752 1477.37 785.614 1477.18 785.513C1477 785.411 1476.79 785.349 1476.58 785.33L1423.26 779.953C1423.06 779.932 1422.85 779.953 1422.65 780.014C1422.45 780.076 1422.26 780.177 1422.1 780.313C1421.94 780.448 1421.81 780.614 1421.71 780.802C1421.62 780.99 1421.56 781.196 1421.54 781.408C1421.5 781.834 1421.63 782.257 1421.9 782.588C1422.16 782.918 1422.54 783.128 1422.96 783.174L1476.28 788.577H1476.43C1476.84 788.606 1477.24 788.47 1477.56 788.198C1477.87 787.926 1478.07 787.54 1478.11 787.122H1478.01ZM1411.1 815.277C1411.45 815.039 1411.7 814.667 1411.79 814.244C1411.87 813.82 1411.79 813.38 1411.56 813.018L1385.2 772.265C1384.96 771.914 1384.6 771.672 1384.19 771.59C1383.77 771.508 1383.35 771.591 1383 771.824C1382.64 772.062 1382.4 772.434 1382.31 772.857C1382.23 773.281 1382.31 773.721 1382.54 774.083L1408.89 814.836C1409.04 815.059 1409.24 815.241 1409.48 815.368C1409.71 815.494 1409.97 815.561 1410.24 815.563C1410.58 815.582 1410.92 815.481 1411.2 815.277H1411.1ZM1471.58 828.913C1471.57 828.486 1471.41 828.077 1471.11 827.773C1470.82 827.468 1470.42 827.29 1470.01 827.277L1407.32 826.68C1406.9 826.68 1406.5 826.849 1406.21 827.151C1405.91 827.453 1405.74 827.863 1405.74 828.29C1405.74 828.505 1405.77 828.718 1405.85 828.918C1405.93 829.118 1406.04 829.3 1406.19 829.454C1406.34 829.607 1406.51 829.727 1406.71 829.809C1406.9 829.89 1407.11 829.93 1407.32 829.926L1470.01 830.524C1470.22 830.534 1470.44 830.5 1470.64 830.425C1470.84 830.349 1471.02 830.232 1471.18 830.082C1471.34 829.932 1471.46 829.751 1471.55 829.55C1471.63 829.349 1471.68 829.133 1471.68 828.913H1471.58ZM1387.46 924.807C1387.59 924.522 1398.28 894.392 1430.42 887.198C1430.84 887.105 1431.2 886.847 1431.43 886.482C1431.66 886.117 1431.73 885.673 1431.64 885.25C1431.54 884.835 1431.28 884.476 1430.93 884.248C1430.58 884.021 1430.15 883.942 1429.74 884.029C1395.84 891.613 1384.59 923.431 1384.47 923.742C1384.34 924.152 1384.37 924.599 1384.55 924.986C1384.74 925.374 1385.06 925.673 1385.46 925.82H1385.97C1386.3 925.85 1386.64 925.768 1386.93 925.585C1387.22 925.403 1387.44 925.13 1387.57 924.807H1387.46Z" fill="#98DAD9"/>
<path opacity="0.2" d="M1470.57 667.67L1464.4 562.66L1470.57 667.67ZM1451.04 702.319L1412.04 612.009L1451.04 702.319ZM1551.69 676.06L1458.23 689.774L1551.69 676.06ZM1430.83 750.993L1380.23 684.579L1430.83 750.993ZM1439.72 730.63L1509.44 734.214L1439.72 730.63ZM1423.21 781.564L1476.53 786.966L1423.21 781.564ZM1410.34 813.927L1383.86 773.174L1410.34 813.927ZM1407.29 828.316L1469.98 828.913L1407.29 828.316ZM1394.6 948.625C1395.02 948.592 1395.41 948.39 1395.68 948.064C1395.96 947.739 1396.1 947.315 1396.07 946.885C1392.08 885.639 1415.24 785.33 1452.39 702.994C1476.13 650.372 1569.18 546.946 1570.17 545.907C1570.47 545.6 1570.64 545.184 1570.64 544.751C1570.64 544.318 1570.47 543.902 1570.17 543.595C1570.03 543.444 1569.85 543.325 1569.66 543.243C1569.47 543.161 1569.26 543.119 1569.05 543.119C1568.85 543.119 1568.64 543.161 1568.45 543.243C1568.26 543.325 1568.08 543.444 1567.94 543.595C1567 544.634 1473.56 648.45 1449.62 701.54C1411.79 785.875 1388.94 884.367 1393 947.093C1393.03 947.506 1393.21 947.893 1393.51 948.176C1393.8 948.46 1394.19 948.62 1394.6 948.625ZM1470.54 669.281C1470.96 669.254 1471.35 669.059 1471.63 668.738C1471.91 668.417 1472.06 667.996 1472.04 667.566L1465.97 562.504C1465.96 562.29 1465.91 562.08 1465.82 561.887C1465.73 561.694 1465.6 561.52 1465.45 561.378C1465.29 561.235 1465.11 561.126 1464.91 561.056C1464.71 560.986 1464.5 560.957 1464.29 560.971C1463.87 560.998 1463.48 561.193 1463.2 561.514C1462.92 561.835 1462.78 562.256 1462.8 562.686L1468.97 667.696C1468.99 668.11 1469.16 668.5 1469.45 668.785C1469.75 669.07 1470.14 669.229 1470.54 669.229V669.281ZM1451.6 703.799C1451.98 703.623 1452.28 703.302 1452.43 702.904C1452.58 702.506 1452.57 702.063 1452.41 701.669L1413.39 611.36C1413.22 610.967 1412.9 610.659 1412.51 610.503C1412.12 610.347 1411.69 610.357 1411.31 610.529C1410.92 610.701 1410.62 611.022 1410.47 611.422C1410.32 611.821 1410.32 612.266 1410.49 612.659L1449.49 702.968C1449.61 703.258 1449.82 703.505 1450.07 703.681C1450.33 703.856 1450.63 703.951 1450.94 703.955C1451.2 703.969 1451.46 703.916 1451.7 703.799H1451.6ZM1458.35 691.332L1551.76 677.67C1551.99 677.665 1552.21 677.612 1552.41 677.513C1552.62 677.414 1552.8 677.272 1552.95 677.097C1553.09 676.921 1553.2 676.716 1553.27 676.495C1553.33 676.273 1553.35 676.041 1553.32 675.812C1553.28 675.583 1553.21 675.364 1553.09 675.168C1552.97 674.972 1552.81 674.804 1552.62 674.676C1552.43 674.547 1552.22 674.46 1552 674.421C1551.78 674.382 1551.55 674.392 1551.33 674.449L1457.92 688.111C1457.5 688.139 1457.11 688.335 1456.84 688.657C1456.56 688.978 1456.42 689.399 1456.45 689.826C1456.48 690.253 1456.67 690.651 1456.98 690.934C1457.3 691.216 1457.71 691.36 1458.12 691.332H1458.35ZM1431.72 752.292C1432.05 752.025 1432.27 751.636 1432.32 751.208C1432.37 750.78 1432.26 750.348 1432 750.006L1381.37 683.462C1381.11 683.118 1380.73 682.893 1380.31 682.837C1379.89 682.781 1379.46 682.898 1379.12 683.163C1378.79 683.429 1378.57 683.82 1378.51 684.251C1378.46 684.682 1378.57 685.118 1378.83 685.462L1429.56 752.11C1429.71 752.304 1429.9 752.461 1430.11 752.569C1430.33 752.677 1430.56 752.733 1430.8 752.733C1431.18 752.714 1431.54 752.558 1431.82 752.292H1431.72ZM1510.83 734.292C1510.85 733.862 1510.7 733.444 1510.41 733.129C1510.13 732.813 1509.73 732.624 1509.31 732.604L1439.72 728.994C1439.33 729.021 1438.96 729.195 1438.68 729.481C1438.41 729.768 1438.25 730.147 1438.23 730.548C1438.21 730.948 1438.34 731.342 1438.58 731.654C1438.83 731.966 1439.18 732.175 1439.56 732.24L1509.29 735.851C1509.71 735.865 1510.11 735.709 1510.42 735.418C1510.73 735.126 1510.92 734.722 1510.94 734.292H1510.83ZM1478.01 787.122C1478.03 786.908 1478.01 786.692 1477.95 786.485C1477.89 786.279 1477.8 786.086 1477.66 785.919C1477.53 785.752 1477.37 785.614 1477.18 785.513C1477 785.411 1476.79 785.349 1476.58 785.33L1423.26 779.953C1423.06 779.932 1422.85 779.953 1422.65 780.014C1422.45 780.076 1422.26 780.177 1422.1 780.313C1421.94 780.448 1421.81 780.614 1421.71 780.802C1421.62 780.99 1421.56 781.196 1421.54 781.408C1421.5 781.834 1421.63 782.257 1421.9 782.588C1422.16 782.918 1422.54 783.128 1422.96 783.174L1476.28 788.577H1476.43C1476.84 788.606 1477.24 788.47 1477.56 788.198C1477.87 787.926 1478.07 787.54 1478.11 787.122H1478.01ZM1411.1 815.277C1411.45 815.039 1411.7 814.667 1411.79 814.244C1411.87 813.82 1411.79 813.38 1411.56 813.018L1385.2 772.265C1384.96 771.914 1384.6 771.672 1384.19 771.59C1383.77 771.508 1383.35 771.591 1383 771.824C1382.64 772.062 1382.4 772.434 1382.31 772.857C1382.23 773.281 1382.31 773.721 1382.54 774.083L1408.89 814.836C1409.04 815.059 1409.24 815.241 1409.48 815.368C1409.71 815.494 1409.97 815.561 1410.24 815.563C1410.58 815.582 1410.92 815.481 1411.2 815.277H1411.1ZM1471.58 828.913C1471.57 828.486 1471.41 828.077 1471.11 827.773C1470.82 827.468 1470.42 827.29 1470.01 827.277L1407.32 826.68C1406.9 826.68 1406.5 826.849 1406.21 827.151C1405.91 827.453 1405.74 827.863 1405.74 828.29C1405.74 828.505 1405.77 828.718 1405.85 828.918C1405.93 829.118 1406.04 829.3 1406.19 829.454C1406.34 829.607 1406.51 829.727 1406.71 829.809C1406.9 829.89 1407.11 829.93 1407.32 829.926L1470.01 830.524C1470.22 830.534 1470.44 830.5 1470.64 830.425C1470.84 830.349 1471.02 830.232 1471.18 830.082C1471.34 829.932 1471.46 829.751 1471.55 829.55C1471.63 829.349 1471.68 829.133 1471.68 828.913H1471.58ZM1387.46 924.807C1387.59 924.522 1398.28 894.392 1430.42 887.198C1430.84 887.105 1431.2 886.847 1431.43 886.482C1431.66 886.117 1431.73 885.673 1431.64 885.25C1431.54 884.835 1431.28 884.476 1430.93 884.248C1430.58 884.021 1430.15 883.942 1429.74 884.029C1395.84 891.613 1384.59 923.431 1384.47 923.742C1384.34 924.152 1384.37 924.599 1384.55 924.986C1384.74 925.374 1385.06 925.673 1385.46 925.82H1385.97C1386.3 925.85 1386.64 925.768 1386.93 925.585C1387.22 925.403 1387.44 925.13 1387.57 924.807H1387.46ZM1394.6 948.625C1395.02 948.592 1395.41 948.39 1395.68 948.064C1395.96 947.739 1396.1 947.315 1396.07 946.885C1392.08 885.639 1415.24 785.33 1452.39 702.994C1476.13 650.372 1569.18 546.946 1570.17 545.907C1570.47 545.6 1570.64 545.184 1570.64 544.751C1570.64 544.318 1570.47 543.902 1570.17 543.595C1570.03 543.444 1569.85 543.325 1569.66 543.243C1569.47 543.161 1569.26 543.119 1569.05 543.119C1568.85 543.119 1568.64 543.161 1568.45 543.243C1568.26 543.325 1568.08 543.444 1567.94 543.595C1567 544.634 1473.56 648.45 1449.62 701.54C1411.79 785.875 1388.94 884.367 1393 947.093C1393.03 947.506 1393.21 947.893 1393.51 948.176C1393.8 948.46 1394.19 948.62 1394.6 948.625ZM1470.54 669.281C1470.96 669.254 1471.35 669.059 1471.63 668.738C1471.91 668.417 1472.06 667.996 1472.04 667.566L1465.97 562.504C1465.96 562.29 1465.91 562.08 1465.82 561.887C1465.73 561.694 1465.6 561.52 1465.45 561.378C1465.29 561.235 1465.11 561.126 1464.91 561.056C1464.71 560.986 1464.5 560.957 1464.29 560.971C1463.87 560.998 1463.48 561.193 1463.2 561.514C1462.92 561.835 1462.78 562.256 1462.8 562.686L1468.97 667.696C1468.99 668.11 1469.16 668.5 1469.45 668.785C1469.75 669.07 1470.14 669.229 1470.54 669.229V669.281ZM1451.6 703.799C1451.98 703.623 1452.28 703.302 1452.43 702.904C1452.58 702.506 1452.57 702.063 1452.41 701.669L1413.39 611.36C1413.22 610.967 1412.9 610.659 1412.51 610.503C1412.12 610.347 1411.69 610.357 1411.31 610.529C1410.92 610.701 1410.62 611.022 1410.47 611.422C1410.32 611.821 1410.32 612.266 1410.49 612.659L1449.49 702.968C1449.61 703.258 1449.82 703.505 1450.07 703.681C1450.33 703.856 1450.63 703.951 1450.94 703.955C1451.2 703.969 1451.46 703.916 1451.7 703.799H1451.6ZM1458.35 691.332L1551.76 677.67C1551.99 677.665 1552.21 677.612 1552.41 677.513C1552.62 677.414 1552.8 677.272 1552.95 677.097C1553.09 676.921 1553.2 676.716 1553.27 676.495C1553.33 676.273 1553.35 676.041 1553.32 675.812C1553.28 675.583 1553.21 675.364 1553.09 675.168C1552.97 674.972 1552.81 674.804 1552.62 674.676C1552.43 674.547 1552.22 674.46 1552 674.421C1551.78 674.382 1551.55 674.392 1551.33 674.449L1457.92 688.111C1457.5 688.139 1457.11 688.335 1456.84 688.657C1456.56 688.978 1456.42 689.399 1456.45 689.826C1456.48 690.253 1456.67 690.651 1456.98 690.934C1457.3 691.216 1457.71 691.36 1458.12 691.332H1458.35ZM1431.72 752.292C1432.05 752.025 1432.27 751.636 1432.32 751.208C1432.37 750.78 1432.26 750.348 1432 750.006L1381.37 683.462C1381.24 683.292 1381.08 683.149 1380.9 683.041C1380.72 682.934 1380.52 682.865 1380.31 682.837C1380.1 682.809 1379.89 682.824 1379.68 682.88C1379.48 682.936 1379.29 683.032 1379.12 683.163C1378.96 683.295 1378.82 683.458 1378.71 683.645C1378.61 683.832 1378.54 684.037 1378.51 684.251C1378.48 684.464 1378.5 684.681 1378.55 684.889C1378.61 685.097 1378.7 685.292 1378.83 685.462L1429.56 752.11C1429.71 752.304 1429.9 752.461 1430.11 752.569C1430.33 752.677 1430.56 752.733 1430.8 752.733C1431.18 752.714 1431.54 752.558 1431.82 752.292H1431.72ZM1510.83 734.292C1510.85 733.862 1510.7 733.444 1510.41 733.129C1510.13 732.813 1509.73 732.624 1509.31 732.604L1439.72 728.994C1439.33 729.021 1438.96 729.195 1438.68 729.481C1438.41 729.768 1438.25 730.147 1438.23 730.548C1438.21 730.948 1438.34 731.342 1438.58 731.654C1438.83 731.966 1439.18 732.175 1439.56 732.24L1509.29 735.851C1509.71 735.865 1510.11 735.709 1510.42 735.418C1510.73 735.126 1510.92 734.722 1510.94 734.292H1510.83ZM1478.01 787.122C1478.03 786.908 1478.01 786.692 1477.95 786.485C1477.89 786.279 1477.8 786.086 1477.66 785.919C1477.53 785.752 1477.37 785.614 1477.18 785.513C1477 785.411 1476.79 785.349 1476.58 785.33L1423.26 779.953C1423.06 779.932 1422.85 779.953 1422.65 780.014C1422.45 780.076 1422.26 780.177 1422.1 780.313C1421.94 780.448 1421.81 780.614 1421.71 780.802C1421.62 780.99 1421.56 781.196 1421.54 781.408C1421.5 781.834 1421.63 782.257 1421.9 782.588C1422.16 782.918 1422.54 783.128 1422.96 783.174L1476.28 788.577H1476.43C1476.84 788.606 1477.24 788.47 1477.56 788.198C1477.87 787.926 1478.07 787.54 1478.11 787.122H1478.01ZM1411.1 815.277C1411.45 815.039 1411.7 814.667 1411.79 814.244C1411.87 813.82 1411.79 813.38 1411.56 813.018L1385.2 772.265C1384.96 771.914 1384.6 771.672 1384.19 771.59C1383.77 771.508 1383.35 771.591 1383 771.824C1382.64 772.062 1382.4 772.434 1382.31 772.857C1382.23 773.281 1382.31 773.721 1382.54 774.083L1408.89 814.836C1409.04 815.059 1409.24 815.241 1409.48 815.368C1409.71 815.494 1409.97 815.561 1410.24 815.563C1410.58 815.582 1410.92 815.481 1411.2 815.277H1411.1ZM1471.58 828.913C1471.57 828.486 1471.41 828.077 1471.11 827.773C1470.82 827.468 1470.42 827.29 1470.01 827.277L1407.32 826.68C1406.9 826.68 1406.5 826.849 1406.21 827.151C1405.91 827.453 1405.74 827.863 1405.74 828.29C1405.74 828.505 1405.77 828.718 1405.85 828.918C1405.93 829.118 1406.04 829.3 1406.19 829.454C1406.34 829.607 1406.51 829.727 1406.71 829.809C1406.9 829.89 1407.11 829.93 1407.32 829.926L1470.01 830.524C1470.22 830.534 1470.44 830.5 1470.64 830.425C1470.84 830.349 1471.02 830.232 1471.18 830.082C1471.34 829.932 1471.46 829.751 1471.55 829.55C1471.63 829.349 1471.68 829.133 1471.68 828.913H1471.58ZM1387.46 924.807C1387.59 924.522 1398.28 894.392 1430.42 887.198C1430.84 887.105 1431.2 886.847 1431.43 886.482C1431.66 886.117 1431.73 885.673 1431.64 885.25C1431.54 884.835 1431.28 884.476 1430.93 884.248C1430.58 884.021 1430.15 883.942 1429.74 884.029C1395.84 891.613 1384.59 923.431 1384.47 923.742C1384.34 924.152 1384.37 924.599 1384.55 924.986C1384.74 925.374 1385.06 925.673 1385.46 925.82H1385.97C1386.3 925.85 1386.64 925.768 1386.93 925.585C1387.22 925.403 1387.44 925.13 1387.57 924.807H1387.46Z" fill="black"/>
<path d="M1436.06 902.834H1364.18V918.054H1370.45L1383.43 1001.09H1416.81L1429.79 918.054H1436.06V902.834Z" fill="#98DAD9"/>
<path opacity="0.3" d="M1436.06 902.834H1364.18V918.054H1370.45L1383.43 1001.09H1416.81L1429.79 918.054H1436.06V902.834Z" fill="white"/>
<path d="M788.916 442.584L705.306 414.663L697.867 394.56L680.881 394.014L650.057 388.04L653.764 394.56L692.56 423.364L702.132 428.247L789.576 474.973L788.916 442.584Z" fill="white" stroke="#263238" stroke-width="1.00396" stroke-miterlimit="10"/>
<path d="M697.867 394.56L689.894 389.677L673.975 395.65L676.615 398.897L697.867 394.56Z" fill="white" stroke="#263238" stroke-width="1.00396" stroke-linejoin="round"/>
<path d="M788.916 442.584L705.306 414.663L697.867 394.56L680.881 394.014L650.057 388.04L653.764 394.56L692.56 423.364L702.132 428.247L789.576 474.973L788.916 442.584Z" fill="white"/>
<mask id="mask0_20_306" style="mask-type:luminance" maskUnits="userSpaceOnUse" x="650" y="388" width="140" height="87">
<path d="M788.916 442.584L705.306 414.663L697.867 394.56L680.881 394.014L650.057 388.04L653.764 394.56L692.56 423.364L702.132 428.247L789.576 474.973L788.916 442.584Z" fill="white"/>
</mask>
<g mask="url(#mask0_20_306)">
<path opacity="0.5" d="M788.916 442.584L705.306 414.663L697.867 394.56L680.881 394.014L650.057 388.04L653.764 394.56L692.56 423.364L702.132 428.247L789.576 474.973L788.916 442.584Z" fill="#98DAD9" stroke="#263238" stroke-width="1.00396" stroke-miterlimit="10"/>
</g>
<path d="M788.916 442.585L705.306 414.663L697.867 394.56L680.881 394.014L650.057 388.04L653.764 394.56L692.56 423.364L702.132 428.247L789.576 474.973L788.916 442.585Z" stroke="#263238" stroke-width="1.00396" stroke-miterlimit="10"/>
<path d="M697.867 394.56L689.894 389.677L673.975 395.65L676.615 398.897L697.867 394.56Z" fill="white"/>
<mask id="mask1_20_306" style="mask-type:luminance" maskUnits="userSpaceOnUse" x="673" y="389" width="25" height="10">
<path d="M697.867 394.56L689.894 389.677L673.975 395.65L676.615 398.897L697.867 394.56Z" fill="white"/>
</mask>
<g mask="url(#mask1_20_306)">
<path opacity="0.5" d="M697.867 394.56L689.894 389.677L673.975 395.65L676.615 398.897L697.867 394.56Z" fill="#98DAD9" stroke="#263238" stroke-width="1.00396" stroke-linejoin="round"/>
</g>
<path d="M697.867 394.56L689.894 389.677L673.975 395.65L676.615 398.897L697.867 394.56Z" stroke="#263238" stroke-width="1.00396" stroke-linejoin="round"/>
<path d="M806.664 261.368C806.664 261.368 805.369 273.056 808.593 280.562C811.818 288.068 829.718 313.496 829.718 313.496L796.304 340.898C796.304 340.898 782.441 312.328 779.801 307.704C777.16 303.081 773.986 283.185 782.594 268.926C791.201 254.667 803.591 250.823 806.664 261.368Z" fill="white"/>
<mask id="mask2_20_306" style="mask-type:luminance" maskUnits="userSpaceOnUse" x="776" y="255" width="54" height="86">
<path d="M806.664 261.368C806.664 261.368 805.369 273.056 808.593 280.562C811.818 288.068 829.718 313.496 829.718 313.496L796.304 340.898C796.304 340.898 782.441 312.328 779.801 307.704C777.16 303.081 773.986 283.185 782.594 268.926C791.201 254.667 803.591 250.823 806.664 261.368Z" fill="white"/>
</mask>
<g mask="url(#mask2_20_306)">
<g style="mix-blend-mode:multiply" opacity="0.5">
<path d="M789.5 298.925L803.998 329.678L796.279 340.924L781.705 314.302L789.5 298.925Z" fill="#98DAD9"/>
</g>
</g>
<path d="M806.664 261.368C806.664 261.368 805.369 273.056 808.593 280.562C811.818 288.068 829.718 313.496 829.718 313.496L796.304 340.898C796.304 340.898 782.441 312.328 779.801 307.704C777.16 303.081 773.986 283.185 782.594 268.926C791.201 254.667 803.591 250.823 806.664 261.368Z" stroke="#263238" stroke-width="1.00396" stroke-miterlimit="10"/>
<path d="M817.023 239.966C814.966 226.979 800.418 200.564 777.338 201.577C762.358 202.252 755.35 205.343 748.85 209.109C743.552 212.303 738.613 216.083 734.124 220.382C722.851 234.226 718.89 238.018 721.073 248.615C720.894 252.842 721.542 257.063 722.978 261.03C726.431 270.459 728.792 276.614 731.788 281.108C730.874 285.497 728.487 297.081 728.36 299.731C728.233 302.38 735.977 300.536 739.888 299.523C747.149 316.146 760.454 327.678 764.592 329.003C771.803 331.314 783.203 319.185 789.246 309.782C795.289 300.38 790.719 289.809 790.744 285.601C790.769 281.393 804.328 272.147 809.355 269.212C814.382 266.277 819.054 252.927 817.023 239.966Z" fill="white"/>
<mask id="mask3_20_306" style="mask-type:luminance" maskUnits="userSpaceOnUse" x="720" y="201" width="98" height="129">
<path d="M817.023 239.966C814.966 226.979 800.418 200.564 777.338 201.577C762.358 202.252 755.35 205.343 748.85 209.109C743.552 212.303 738.613 216.083 734.124 220.382C722.851 234.226 718.89 238.018 721.073 248.615C720.894 252.842 721.542 257.063 722.978 261.03C726.431 270.459 728.792 276.614 731.788 281.108C730.874 285.497 728.487 297.081 728.36 299.731C728.233 302.38 735.977 300.536 739.888 299.523C747.149 316.146 760.454 327.678 764.592 329.003C771.803 331.314 783.203 319.185 789.246 309.782C795.289 300.38 790.719 289.809 790.744 285.601C790.769 281.393 804.328 272.147 809.355 269.212C814.382 266.277 819.054 252.927 817.023 239.966Z" fill="white"/>
</mask>
<g mask="url(#mask3_20_306)">
<g style="mix-blend-mode:multiply" opacity="0.5">
<path d="M721.175 248.615C720.996 252.842 721.643 257.063 723.079 261.03C726.532 270.458 728.893 276.614 731.889 281.108C730.975 285.497 728.589 297.081 728.462 299.731C728.335 302.38 736.079 300.536 739.989 299.523C747.25 316.146 760.555 327.678 764.693 329.003C771.904 331.314 783.304 319.185 789.347 309.782C790.857 307.435 791.837 304.773 792.216 301.99C791.886 300.769 791.658 300.016 791.658 300.016C791.658 300.016 788.255 313.393 781.502 311.652C774.748 309.912 764.414 296.068 758.651 291.289C752.887 286.51 755.248 280.224 754.106 273.108C752.963 265.991 735.901 259.731 734.758 255.654C733.616 251.576 737.602 234.693 737.602 234.693C737.602 234.693 744.077 225.862 742.68 229.498C741.693 232.651 741.335 235.975 741.627 239.272C741.92 242.569 742.856 245.773 744.381 248.693C745.452 250.997 747.149 252.936 749.271 254.276C751.392 255.617 753.847 256.303 756.34 256.251L762.535 224.849L749.459 213.784L734.225 220.278C722.85 234.226 718.966 238.018 721.175 248.615Z" fill="#98DAD9"/>
</g>
</g>
<path d="M817.023 239.966C814.966 226.979 800.418 200.564 777.338 201.577C762.358 202.252 755.35 205.343 748.85 209.109C743.552 212.303 738.613 216.083 734.124 220.382C722.851 234.226 718.89 238.018 721.073 248.615C720.894 252.842 721.542 257.063 722.978 261.03C726.431 270.459 728.792 276.614 731.788 281.108C730.874 285.497 728.487 297.081 728.36 299.731C728.233 302.38 735.977 300.536 739.888 299.523C747.149 316.146 760.454 327.678 764.592 329.003C771.803 331.314 783.203 319.185 789.246 309.782C795.289 300.38 790.719 289.809 790.744 285.601C790.769 281.393 804.328 272.147 809.355 269.212C814.382 266.277 819.054 252.927 817.023 239.966Z" stroke="#263238" stroke-miterlimit="10"/>
<path d="M734.936 273.264L737.476 280.692C737.476 280.692 742.934 282.536 749.587 275.108" stroke="#263238" stroke-miterlimit="10" stroke-linecap="round"/>
<path d="M753.7 307.964C753.7 307.964 759.743 307.341 762.18 298.666" stroke="#263238" stroke-miterlimit="10" stroke-linecap="round"/>
<path d="M730.696 267.056C730.696 267.056 732.499 261.472 743.391 261.472" stroke="#263238" stroke-miterlimit="10" stroke-linecap="round"/>
<path d="M786.529 191.239C778.615 190.075 770.633 189.45 762.637 189.369C762.637 189.369 738.72 175.266 715.742 190.304C692.763 205.343 703.808 231.68 703.808 238.251C703.808 244.823 696.445 244.849 701.041 253.316C705.636 261.783 721.175 257.108 721.175 257.108C721.339 253.915 722.164 250.793 723.595 247.95C725.027 245.107 727.032 242.607 729.478 240.615C737.755 234.044 744.356 232.615 747.098 234.511C747.098 234.511 745.27 248.615 748.012 254.251C748.012 254.251 757.204 258.952 759.971 258.952C762.739 258.952 758.168 262.926 767.334 266.459C769.004 267.072 770.79 267.281 772.553 267.069C774.315 266.857 776.005 266.231 777.49 265.238C778.836 259.524 781.781 250.926 787.266 252.926C795.314 255.861 802.652 276.121 791.76 283.03C804.861 285.471 820.73 261.757 821.669 240.147C822.609 218.538 800.138 193.681 786.529 191.239Z" fill="#263238"/>
<path d="M747.505 225.239C747.505 225.239 754.258 221.525 762.536 229.472C770.813 237.42 786.91 248.043 808.238 242.199" stroke="white" stroke-width="0.5" stroke-linecap="round" stroke-linejoin="round"/>
<path d="M746.565 218.875C746.565 218.875 751.211 211.447 758.981 211.447C766.75 211.447 784.904 222.59 799.402 222.59" stroke="white" stroke-width="0.5" stroke-linecap="round" stroke-linejoin="round"/>
<path d="M741.284 233.187C741.284 233.187 732.474 222.07 724.196 231.083C715.919 240.095 721.175 248.615 721.175 248.615" stroke="white" stroke-width="0.5" stroke-linecap="round" stroke-linejoin="round"/>
<path d="M706.068 240.615C711.117 235.957 714.255 229.518 714.853 222.59C715.894 210.928 731.458 200.85 741.284 210.408" stroke="white" stroke-width="0.5" stroke-linecap="round" stroke-linejoin="round"/>
<path d="M722.114 198.201C722.114 198.201 737.679 182.824 750.627 202.434" stroke="white" stroke-width="0.5" stroke-linecap="round" stroke-linejoin="round"/>
<path d="M848.786 954.209C848.786 954.209 858.358 969.43 857.292 979.222L856.251 989.014C856.251 989.014 821.136 998.858 813.697 998.858C806.257 998.858 766.877 995.04 766.877 995.04L765.176 988.131C765.057 987.62 765.113 987.084 765.335 986.611C765.557 986.138 765.931 985.757 766.395 985.533L801.509 968.78L812.58 956.391L848.786 954.209Z" fill="white" stroke="#263238" stroke-width="1.00396" stroke-miterlimit="10"/>
<path d="M819.029 991.196C828.55 991.949 846.628 986.001 857.114 982.209L856.378 989.014C856.378 989.014 821.136 998.858 813.697 998.858C806.257 998.858 766.877 995.04 766.877 995.04L765.658 990.105C771.955 990.131 806.435 990.209 819.029 991.196Z" fill="#98DAD9" stroke="#263238" stroke-width="1.00396" stroke-miterlimit="10"/>
<path d="M801.56 968.781L750.45 991.533C750.45 991.533 746.083 1002.73 750.45 1004.96C754.817 1007.2 850.03 1004.96 850.03 1004.96C850.03 1004.96 856.606 987.274 846.221 975.404C835.837 963.534 801.56 968.781 801.56 968.781Z" fill="white" stroke="#263238" stroke-width="1.00396" stroke-miterlimit="10"/>
<path d="M850.03 1004.96C850.03 1004.96 754.817 1007.2 750.45 1004.96C748.342 1003.87 748.266 1000.73 748.749 997.741H851.706C851.369 1000.2 850.808 1002.61 850.03 1004.96Z" fill="#98DAD9" stroke="#263238" stroke-width="1.00396" stroke-miterlimit="10"/>
<path d="M777.389 573.439C777.389 573.439 764.034 633.983 758.981 671.852C753.928 709.721 750.958 785.59 752.024 794.291C753.09 802.992 806.257 948.781 806.257 948.781L811.564 961.768L848.786 954.157C848.786 954.157 831.775 898.678 825.402 868.211C819.029 837.745 805.089 787.694 805.089 778.993C805.089 770.291 838.097 604.113 840.458 593.205C842.819 582.296 853.534 565.543 853.534 565.543L782.264 564.062L777.389 573.439Z" fill="#98DAD9" stroke="#263238" stroke-width="1.00396" stroke-miterlimit="10"/>
<path d="M777.389 573.439C777.389 573.439 769.569 628.736 772.793 667.177C776.018 705.618 782.949 787.46 782.949 799.641C782.949 811.823 802.169 884.575 803.261 907.431C804.962 940.443 802.576 956.781 802.576 956.781L801.433 968.754C801.433 968.754 823.853 972.027 828.753 973.456C834.413 974.947 840.254 975.595 846.094 975.378C846.094 975.378 854.245 938.677 854.245 907.405C854.245 876.133 847.466 811.771 844.089 785.694C840.712 759.616 851.35 659.021 857.393 640.242C863.436 621.464 876.639 581.698 867.752 561.387C858.866 541.076 777.389 573.439 777.389 573.439Z" fill="#98DAD9" stroke="#263238" stroke-width="1.00396" stroke-miterlimit="10"/>
<path d="M877.629 551.205L876.817 575.932C876.817 575.932 862.344 578.867 842.845 582.322C826.747 585.179 786.326 581.568 772.717 580.218C771.477 580.105 770.33 579.497 769.527 578.524C768.723 577.551 768.327 576.293 768.426 575.023L769.746 552.686L877.629 551.205Z" fill="#263238"/>
<path d="M821.06 304.718C821.06 304.718 798.209 329.99 789.601 345.704C780.994 361.418 777.592 385.495 774.367 404.456C771.143 423.416 779.877 467.935 777.414 488.376L769.619 552.764C769.619 552.764 767.944 557.127 773.555 561.906C779.166 566.686 806.562 568.426 831.318 569.699C840.356 570.166 867.346 564.218 871.764 563.932C877.096 563.595 877.274 556.66 877.502 551.205C878.569 525.57 883.088 457.234 886.059 427.468C892.178 366.768 858.688 308.172 821.06 304.718Z" fill="white" stroke="#263238" stroke-width="1.00396" stroke-miterlimit="10"/>
<g style="mix-blend-mode:multiply">
<path d="M883.266 461.987C884.281 448.507 885.297 436.273 886.186 427.468C886.439 424.871 886.592 422.273 886.719 419.676L826.011 430.065L773.859 411.884C773.865 422.923 774.476 433.953 775.688 444.922L826.849 459.571L883.266 461.987Z" fill="#98DAD9"/>
</g>
<g style="mix-blend-mode:multiply">
<path d="M818.8 307.263C815.347 311.185 808.492 319.159 801.966 327.626L840.509 367.703L853.204 362.508L818.8 307.263Z" fill="#98DAD9"/>
</g>
<path d="M821.06 304.718C821.06 304.718 798.209 329.99 789.601 345.704C787.049 350.479 784.982 355.51 783.432 360.716L829.388 306.406C826.673 305.564 823.883 304.999 821.06 304.718Z" fill="#263238"/>
<g style="mix-blend-mode:multiply">
<path d="M776.145 394.222L826.011 411.001L886.566 403.884C885.617 388.452 882.266 373.275 876.639 358.924L827.814 378.95L784.168 358.716C780.599 370.321 777.917 382.192 776.145 394.222Z" fill="#98DAD9"/>
</g>
<g style="mix-blend-mode:multiply">
<path d="M861.989 525.57C836.697 529.914 810.746 527.745 786.478 519.258L774.317 514.999L770.533 546.167L784.396 550.141C810.751 557.678 838.295 559.849 865.467 556.53L876.664 555.153C877.247 553.891 877.575 552.522 877.629 551.128C877.934 544.193 878.467 534.115 879.153 522.557L861.989 525.57Z" fill="#98DAD9"/>
</g>
<g style="mix-blend-mode:multiply">
<path d="M868.768 483.129C843.475 487.49 817.517 485.312 793.258 476.792L777.77 471.363C778.154 477.022 778.077 482.704 777.541 488.35L775.738 503.336L791.176 507.752C817.52 515.298 845.056 517.477 872.221 514.167L879.838 513.232C880.473 502.843 881.209 491.778 881.996 480.843L868.768 483.129Z" fill="#98DAD9"/>
</g>
<path d="M630.561 373.292L679.653 413.671L681.769 410.979L632.677 370.6L630.561 373.292Z" fill="#263238"/>
<path d="M844.698 332.743C844.698 332.743 862.7 345.288 863.106 374.924C863.284 387.911 861.963 400.04 859.043 421.312C856.124 442.585 837.995 511.856 823.878 520.271C809.761 528.687 787.849 512.791 787.849 512.791L681.871 440.818L656.252 419.65L643.557 395.131L647.543 387.339L678.799 411.858L661.965 395.936L665.266 391.651L671.359 395.988L689.132 402.793L693.017 428.767L698.501 432.611L799.884 470.506C799.884 470.506 798.615 414.689 799.554 404.014C800.494 393.339 801.789 366.508 812.96 347.054" fill="white"/>
<mask id="mask4_20_306" style="mask-type:luminance" maskUnits="userSpaceOnUse" x="643" y="332" width="221" height="191">
<path d="M844.698 332.743C844.698 332.743 862.7 345.288 863.106 374.924C863.284 387.911 861.963 400.04 859.043 421.312C856.124 442.585 837.995 511.856 823.878 520.271C809.761 528.687 787.849 512.791 787.849 512.791L681.871 440.818L656.252 419.65L643.557 395.131L647.543 387.339L678.799 411.858L661.965 395.936L665.266 391.651L671.359 395.988L689.132 402.793L693.017 428.767L698.501 432.611L799.884 470.506C799.884 470.506 798.615 414.689 799.554 404.014C800.494 393.339 801.789 366.508 812.96 347.054" fill="white"/>
</mask>
<g mask="url(#mask4_20_306)">
<g style="mix-blend-mode:multiply" opacity="0.5">
<path d="M799.174 428.325C799.174 447.597 799.808 470.506 799.808 470.506L698.527 432.767L693.043 428.922L689.158 402.949L671.385 396.144L665.317 391.729L662.016 396.014L678.799 411.858L647.544 387.339L643.76 395.001L656.455 419.52L682.074 440.818L688.523 445.208L828.55 491.363L799.174 428.325Z" fill="#98DAD9"/>
</g>
</g>
<path d="M844.698 332.743C844.698 332.743 862.7 345.288 863.106 374.924C863.284 387.911 861.963 400.04 859.043 421.312C856.124 442.585 837.995 511.856 823.878 520.271C809.761 528.687 787.849 512.791 787.849 512.791L681.871 440.818L656.252 419.65L643.557 395.131L647.543 387.339L678.799 411.858L661.965 395.936L665.266 391.651L671.359 395.988L689.132 402.793L693.017 428.767L698.501 432.611L799.884 470.506C799.884 470.506 798.615 414.689 799.554 404.014C800.494 393.339 801.789 366.508 812.96 347.054" stroke="#263238" stroke-width="1.00396" stroke-miterlimit="10"/>
<path d="M799.884 470.506L838.579 499.077L848.608 480.895C848.608 480.895 855.54 475.311 856.555 471.103C857.571 466.896 856.276 460.065 857.317 455.857C858.358 451.649 863.538 447.701 864.02 437.52C864.502 427.338 864.02 418.845 864.02 418.845C864.02 418.845 872.399 383.599 871.485 368.275C870.571 352.95 856.124 325.86 844.546 325.263C832.968 324.665 817.911 326.457 806.232 344.535C794.553 362.612 796.939 415.39 795.111 418.689C793.283 421.988 795.822 438.273 795.822 438.273C794.807 439.047 793.965 440.034 793.353 441.167C792.74 442.3 792.37 443.553 792.267 444.844C792.064 449.078 796.533 459.493 796.533 459.493L799.884 470.506Z" fill="white" stroke="#263238" stroke-width="1.00396" stroke-miterlimit="10"/>
<g style="mix-blend-mode:multiply">
<path d="M796.127 405.131C796.206 409.663 795.875 414.193 795.136 418.663C793.511 421.624 795.365 435 795.771 437.728C817.535 444.643 840.549 446.419 863.081 442.922C863.565 441.116 863.854 439.261 863.944 437.39C864.452 427.234 863.944 418.715 863.944 418.715C863.944 418.715 864.68 415.572 865.696 410.793C842.361 412.31 818.934 410.404 796.127 405.131Z" fill="#98DAD9"/>
</g>
<g style="mix-blend-mode:multiply">
<path d="M804.658 347.418C801.027 354.872 798.996 366.067 797.828 377.417C820.877 386.416 845.729 389.51 870.215 386.43C871.192 380.423 871.626 374.337 871.51 368.249C871.07 363.436 869.959 358.713 868.209 354.223C846.829 354.734 825.472 352.447 804.658 347.418Z" fill="#98DAD9"/>
</g>
<path d="M796.533 459.779L799.808 470.506L838.503 499.077L848.532 480.895C848.532 480.895 855.463 475.311 856.479 471.103C856.66 470.372 856.771 469.623 856.809 468.87C836.418 468.509 816.158 465.454 796.533 459.779Z" fill="#263238"/>
<path d="M824.538 973.118C824.538 973.118 825.402 950.625 829.616 917.743C833.831 884.86 823.7 838.16 821.999 830.368C820.298 822.576 822.863 805.278 821.161 799.2C819.46 793.122 811.234 767.201 816.083 737.123C820.933 707.046 824.868 627.541 824.868 627.541C824.868 627.541 812.656 617.386 809.076 604.165C805.496 590.945 808.238 586.789 808.238 586.789" stroke="#263238" stroke-width="1.00396" stroke-miterlimit="10"/>
<path d="M830.2 588.01L825.503 614.607" stroke="#263238" stroke-width="1.00396" stroke-miterlimit="10"/>
<rect x="-56" y="1" width="706" height="1089" rx="50" fill="#98DAD9" fill-opacity="0.3"/>
<rect x="141" y="540" width="375" height="75" rx="15" fill="url(#paint0_linear_20_306)"/>
<path d="M283.806 580.292H289.446V582.5H281.07V565.82H283.806V580.292ZM303.854 575.564C303.854 576.06 303.822 576.508 303.758 576.908H293.654C293.734 577.964 294.126 578.812 294.83 579.452C295.534 580.092 296.398 580.412 297.422 580.412C298.894 580.412 299.934 579.796 300.542 578.564H303.494C303.094 579.78 302.366 580.78 301.31 581.564C300.27 582.332 298.974 582.716 297.422 582.716C296.158 582.716 295.022 582.436 294.014 581.876C293.022 581.3 292.238 580.5 291.662 579.476C291.102 578.436 290.822 577.236 290.822 575.876C290.822 574.516 291.094 573.324 291.638 572.3C292.198 571.26 292.974 570.46 293.966 569.9C294.974 569.34 296.126 569.06 297.422 569.06C298.67 569.06 299.782 569.332 300.758 569.876C301.734 570.42 302.494 571.188 303.038 572.18C303.582 573.156 303.854 574.284 303.854 575.564ZM300.998 574.7C300.982 573.692 300.622 572.884 299.918 572.276C299.214 571.668 298.342 571.364 297.302 571.364C296.358 571.364 295.55 571.668 294.878 572.276C294.206 572.868 293.806 573.676 293.678 574.7H300.998ZM309.738 571.508V578.828C309.738 579.324 309.85 579.684 310.074 579.908C310.314 580.116 310.714 580.22 311.274 580.22H312.954V582.5H310.794C309.562 582.5 308.618 582.212 307.962 581.636C307.306 581.06 306.978 580.124 306.978 578.828V571.508H305.418V569.276H306.978V565.988H309.738V569.276H312.954V571.508H309.738ZM327.206 582.668C326.086 582.668 325.078 582.476 324.182 582.092C323.286 581.692 322.582 581.132 322.07 580.412C321.558 579.692 321.302 578.852 321.302 577.892H324.23C324.294 578.612 324.574 579.204 325.07 579.668C325.582 580.132 326.294 580.364 327.206 580.364C328.15 580.364 328.886 580.14 329.414 579.692C329.942 579.228 330.206 578.636 330.206 577.916C330.206 577.356 330.038 576.9 329.702 576.548C329.382 576.196 328.974 575.924 328.478 575.732C327.998 575.54 327.326 575.332 326.462 575.108C325.374 574.82 324.486 574.532 323.798 574.244C323.126 573.94 322.55 573.476 322.07 572.852C321.59 572.228 321.35 571.396 321.35 570.356C321.35 569.396 321.59 568.556 322.07 567.836C322.55 567.116 323.222 566.564 324.086 566.18C324.95 565.796 325.95 565.604 327.086 565.604C328.702 565.604 330.022 566.012 331.046 566.828C332.086 567.628 332.662 568.732 332.774 570.14H329.75C329.702 569.532 329.414 569.012 328.886 568.58C328.358 568.148 327.662 567.932 326.798 567.932C326.014 567.932 325.374 568.132 324.878 568.532C324.382 568.932 324.134 569.508 324.134 570.26C324.134 570.772 324.286 571.196 324.59 571.532C324.91 571.852 325.31 572.108 325.79 572.3C326.27 572.492 326.926 572.7 327.758 572.924C328.862 573.228 329.758 573.532 330.446 573.836C331.15 574.14 331.742 574.612 332.222 575.252C332.718 575.876 332.966 576.716 332.966 577.772C332.966 578.62 332.734 579.42 332.27 580.172C331.822 580.924 331.158 581.532 330.278 581.996C329.414 582.444 328.39 582.668 327.206 582.668ZM339.387 571.508V578.828C339.387 579.324 339.499 579.684 339.723 579.908C339.963 580.116 340.363 580.22 340.923 580.22H342.603V582.5H340.443C339.211 582.5 338.267 582.212 337.611 581.636C336.955 581.06 336.627 580.124 336.627 578.828V571.508H335.067V569.276H336.627V565.988H339.387V569.276H342.603V571.508H339.387ZM344.212 575.828C344.212 574.5 344.484 573.324 345.028 572.3C345.588 571.276 346.34 570.484 347.284 569.924C348.244 569.348 349.3 569.06 350.452 569.06C351.492 569.06 352.396 569.268 353.164 569.684C353.948 570.084 354.572 570.588 355.036 571.196V569.276H357.796V582.5H355.036V580.532C354.572 581.156 353.94 581.676 353.14 582.092C352.34 582.508 351.428 582.716 350.404 582.716C349.268 582.716 348.228 582.428 347.284 581.852C346.34 581.26 345.588 580.444 345.028 579.404C344.484 578.348 344.212 577.156 344.212 575.828ZM355.036 575.876C355.036 574.964 354.844 574.172 354.46 573.5C354.092 572.828 353.604 572.316 352.996 571.964C352.388 571.612 351.732 571.436 351.028 571.436C350.324 571.436 349.668 571.612 349.06 571.964C348.452 572.3 347.956 572.804 347.572 573.476C347.204 574.132 347.02 574.916 347.02 575.828C347.02 576.74 347.204 577.54 347.572 578.228C347.956 578.916 348.452 579.444 349.06 579.812C349.684 580.164 350.34 580.34 351.028 580.34C351.732 580.34 352.388 580.164 352.996 579.812C353.604 579.46 354.092 578.948 354.46 578.276C354.844 577.588 355.036 576.788 355.036 575.876ZM364.126 571.196C364.526 570.524 365.054 570.004 365.71 569.636C366.382 569.252 367.174 569.06 368.086 569.06V571.892H367.39C366.318 571.892 365.502 572.164 364.942 572.708C364.398 573.252 364.126 574.196 364.126 575.54V582.5H361.39V569.276H364.126V571.196ZM373.793 571.508V578.828C373.793 579.324 373.905 579.684 374.129 579.908C374.369 580.116 374.769 580.22 375.329 580.22H377.009V582.5H374.849C373.617 582.5 372.673 582.212 372.017 581.636C371.361 581.06 371.033 580.124 371.033 578.828V571.508H369.473V569.276H371.033V565.988H373.793V569.276H377.009V571.508H373.793Z" fill="white"/>
<path d="M247.449 372.456H238.137L236.537 377H232.729L240.697 354.728H244.921L252.889 377H249.049L247.449 372.456ZM246.425 369.48L242.809 359.144L239.161 369.48H246.425ZM265.473 359.08C266.817 359.08 268.012 359.368 269.057 359.944C270.124 360.52 270.956 361.373 271.553 362.504C272.172 363.635 272.481 365 272.481 366.6V377H268.865V367.144C268.865 365.565 268.47 364.36 267.681 363.528C266.892 362.675 265.814 362.248 264.449 362.248C263.084 362.248 261.996 362.675 261.185 363.528C260.396 364.36 260.001 365.565 260.001 367.144V377H256.353V353.32H260.001V361.416C260.62 360.669 261.398 360.093 262.337 359.688C263.297 359.283 264.342 359.08 265.473 359.08ZM280.366 374.024H288.366V377H276.142V374.024L284.174 362.344H276.142V359.368H288.366V362.344L280.366 374.024ZM311.685 378.28V381.672H293.829V378.28H311.685ZM329.984 377L321.376 367.048V377H317.728V354.76H321.376V364.904L330.016 354.76H334.592L324.928 365.896L334.752 377H329.984ZM347.098 359.08C348.442 359.08 349.637 359.368 350.682 359.944C351.749 360.52 352.581 361.373 353.178 362.504C353.797 363.635 354.106 365 354.106 366.6V377H350.49V367.144C350.49 365.565 350.095 364.36 349.306 363.528C348.517 362.675 347.439 362.248 346.074 362.248C344.709 362.248 343.621 362.675 342.81 363.528C342.021 364.36 341.626 365.565 341.626 367.144V377H337.978V353.32H341.626V361.416C342.245 360.669 343.023 360.093 343.962 359.688C344.922 359.283 345.967 359.08 347.098 359.08ZM357.543 368.104C357.543 366.333 357.906 364.765 358.631 363.4C359.378 362.035 360.381 360.979 361.639 360.232C362.919 359.464 364.327 359.08 365.863 359.08C367.25 359.08 368.455 359.357 369.479 359.912C370.525 360.445 371.357 361.117 371.975 361.928V359.368H375.655V377H371.975V374.376C371.357 375.208 370.514 375.901 369.447 376.456C368.381 377.011 367.165 377.288 365.799 377.288C364.285 377.288 362.898 376.904 361.639 376.136C360.381 375.347 359.378 374.259 358.631 372.872C357.906 371.464 357.543 369.875 357.543 368.104ZM371.975 368.168C371.975 366.952 371.719 365.896 371.207 365C370.717 364.104 370.066 363.421 369.255 362.952C368.445 362.483 367.57 362.248 366.631 362.248C365.693 362.248 364.818 362.483 364.007 362.952C363.197 363.4 362.535 364.072 362.023 364.968C361.533 365.843 361.287 366.888 361.287 368.104C361.287 369.32 361.533 370.387 362.023 371.304C362.535 372.221 363.197 372.925 364.007 373.416C364.839 373.885 365.714 374.12 366.631 374.12C367.57 374.12 368.445 373.885 369.255 373.416C370.066 372.947 370.717 372.264 371.207 371.368C371.719 370.451 371.975 369.384 371.975 368.168ZM389.343 359.08C390.73 359.08 391.967 359.368 393.055 359.944C394.164 360.52 395.028 361.373 395.647 362.504C396.266 363.635 396.575 365 396.575 366.6V377H392.959V367.144C392.959 365.565 392.564 364.36 391.775 363.528C390.986 362.675 389.908 362.248 388.543 362.248C387.178 362.248 386.09 362.675 385.279 363.528C384.49 364.36 384.095 365.565 384.095 367.144V377H380.447V359.368H384.095V361.384C384.692 360.659 385.45 360.093 386.367 359.688C387.306 359.283 388.298 359.08 389.343 359.08ZM420.716 378.28V381.672H402.86V378.28H420.716Z" fill="#A4A4A4"/>
<path d="M205.235 434.971H216.275V440.299H198.515V406.795H205.235V434.971ZM232.354 440.731C229.794 440.731 227.49 440.171 225.442 439.051C223.394 437.899 221.778 436.283 220.594 434.203C219.442 432.123 218.866 429.723 218.866 427.003C218.866 424.283 219.458 421.883 220.642 419.803C221.858 417.723 223.506 416.123 225.586 415.003C227.666 413.851 229.986 413.275 232.546 413.275C235.106 413.275 237.426 413.851 239.506 415.003C241.586 416.123 243.218 417.723 244.402 419.803C245.618 421.883 246.226 424.283 246.226 427.003C246.226 429.723 245.602 432.123 244.354 434.203C243.138 436.283 241.474 437.899 239.362 439.051C237.282 440.171 234.946 440.731 232.354 440.731ZM232.354 434.875C233.57 434.875 234.706 434.587 235.762 434.011C236.85 433.403 237.714 432.507 238.354 431.323C238.994 430.139 239.314 428.699 239.314 427.003C239.314 424.475 238.642 422.539 237.298 421.195C235.986 419.819 234.37 419.131 232.45 419.131C230.53 419.131 228.914 419.819 227.602 421.195C226.322 422.539 225.682 424.475 225.682 427.003C225.682 429.531 226.306 431.483 227.554 432.859C228.834 434.203 230.434 434.875 232.354 434.875ZM261.572 413.275C263.556 413.275 265.3 413.675 266.804 414.475C268.308 415.243 269.492 416.251 270.356 417.499V413.707H277.124V440.491C277.124 442.955 276.628 445.147 275.636 447.067C274.644 449.019 273.156 450.555 271.172 451.675C269.188 452.827 266.788 453.403 263.972 453.403C260.196 453.403 257.092 452.523 254.66 450.763C252.26 449.003 250.9 446.603 250.58 443.563H257.252C257.604 444.779 258.356 445.739 259.508 446.443C260.692 447.179 262.116 447.547 263.78 447.547C265.732 447.547 267.316 446.955 268.532 445.771C269.748 444.619 270.356 442.859 270.356 440.491V436.363C269.492 437.611 268.292 438.651 266.756 439.483C265.252 440.315 263.524 440.731 261.572 440.731C259.332 440.731 257.284 440.155 255.428 439.003C253.572 437.851 252.1 436.235 251.012 434.155C249.956 432.043 249.428 429.627 249.428 426.907C249.428 424.219 249.956 421.835 251.012 419.755C252.1 417.675 253.556 416.075 255.38 414.955C257.236 413.835 259.3 413.275 261.572 413.275ZM270.356 427.003C270.356 425.371 270.036 423.979 269.396 422.827C268.756 421.643 267.892 420.747 266.804 420.139C265.716 419.499 264.548 419.179 263.3 419.179C262.052 419.179 260.9 419.483 259.844 420.091C258.788 420.699 257.924 421.595 257.252 422.779C256.612 423.931 256.292 425.307 256.292 426.907C256.292 428.507 256.612 429.915 257.252 431.131C257.924 432.315 258.788 433.227 259.844 433.867C260.932 434.507 262.084 434.827 263.3 434.827C264.548 434.827 265.716 434.523 266.804 433.915C267.892 433.275 268.756 432.379 269.396 431.227C270.036 430.043 270.356 428.635 270.356 427.003ZM287.095 410.539C285.911 410.539 284.919 410.171 284.119 409.435C283.351 408.667 282.967 407.723 282.967 406.603C282.967 405.483 283.351 404.555 284.119 403.819C284.919 403.051 285.911 402.667 287.095 402.667C288.279 402.667 289.255 403.051 290.023 403.819C290.823 404.555 291.223 405.483 291.223 406.603C291.223 407.723 290.823 408.667 290.023 409.435C289.255 410.171 288.279 410.539 287.095 410.539ZM290.407 413.707V440.299H283.687V413.707H290.407ZM311.782 413.323C314.95 413.323 317.51 414.331 319.462 416.347C321.414 418.331 322.39 421.115 322.39 424.699V440.299H315.67V425.611C315.67 423.499 315.142 421.883 314.086 420.763C313.03 419.611 311.59 419.035 309.766 419.035C307.91 419.035 306.438 419.611 305.35 420.763C304.294 421.883 303.766 423.499 303.766 425.611V440.299H297.046V413.707H303.766V417.019C304.662 415.867 305.798 414.971 307.174 414.331C308.582 413.659 310.118 413.323 311.782 413.323ZM364.65 417.163C364.65 418.955 364.218 420.635 363.354 422.203C362.522 423.771 361.194 425.035 359.37 425.995C357.578 426.955 355.306 427.435 352.554 427.435H346.938V440.299H340.218V406.795H352.554C355.146 406.795 357.354 407.243 359.178 408.139C361.002 409.035 362.362 410.267 363.258 411.835C364.186 413.403 364.65 415.179 364.65 417.163ZM352.266 422.011C354.122 422.011 355.498 421.595 356.394 420.763C357.29 419.899 357.738 418.699 357.738 417.163C357.738 413.899 355.914 412.267 352.266 412.267H346.938V422.011H352.266ZM367.693 426.907C367.693 424.219 368.221 421.835 369.277 419.755C370.365 417.675 371.821 416.075 373.645 414.955C375.501 413.835 377.565 413.275 379.837 413.275C381.821 413.275 383.549 413.675 385.021 414.475C386.525 415.275 387.725 416.283 388.621 417.499V413.707H395.389V440.299H388.621V436.411C387.757 437.659 386.557 438.699 385.021 439.531C383.517 440.331 381.773 440.731 379.789 440.731C377.549 440.731 375.501 440.155 373.645 439.003C371.821 437.851 370.365 436.235 369.277 434.155C368.221 432.043 367.693 429.627 367.693 426.907ZM388.621 427.003C388.621 425.371 388.301 423.979 387.661 422.827C387.021 421.643 386.157 420.747 385.069 420.139C383.981 419.499 382.813 419.179 381.565 419.179C380.317 419.179 379.165 419.483 378.109 420.091C377.053 420.699 376.189 421.595 375.517 422.779C374.877 423.931 374.557 425.307 374.557 426.907C374.557 428.507 374.877 429.915 375.517 431.131C376.189 432.315 377.053 433.227 378.109 433.867C379.197 434.507 380.349 434.827 381.565 434.827C382.813 434.827 383.981 434.523 385.069 433.915C386.157 433.275 387.021 432.379 387.661 431.227C388.301 430.043 388.621 428.635 388.621 427.003ZM412.369 413.275C414.353 413.275 416.097 413.675 417.601 414.475C419.105 415.243 420.289 416.251 421.153 417.499V413.707H427.921V440.491C427.921 442.955 427.425 445.147 426.433 447.067C425.441 449.019 423.953 450.555 421.969 451.675C419.985 452.827 417.585 453.403 414.769 453.403C410.993 453.403 407.889 452.523 405.457 450.763C403.057 449.003 401.697 446.603 401.377 443.563H408.049C408.401 444.779 409.153 445.739 410.305 446.443C411.489 447.179 412.913 447.547 414.577 447.547C416.529 447.547 418.113 446.955 419.329 445.771C420.545 444.619 421.153 442.859 421.153 440.491V436.363C420.289 437.611 419.089 438.651 417.553 439.483C416.049 440.315 414.321 440.731 412.369 440.731C410.129 440.731 408.081 440.155 406.225 439.003C404.369 437.851 402.897 436.235 401.809 434.155C400.753 432.043 400.225 429.627 400.225 426.907C400.225 424.219 400.753 421.835 401.809 419.755C402.897 417.675 404.353 416.075 406.177 414.955C408.033 413.835 410.097 413.275 412.369 413.275ZM421.153 427.003C421.153 425.371 420.833 423.979 420.193 422.827C419.553 421.643 418.689 420.747 417.601 420.139C416.513 419.499 415.345 419.179 414.097 419.179C412.849 419.179 411.697 419.483 410.641 420.091C409.585 420.699 408.721 421.595 408.049 422.779C407.409 423.931 407.089 425.307 407.089 426.907C407.089 428.507 407.409 429.915 408.049 431.131C408.721 432.315 409.585 433.227 410.641 433.867C411.729 434.507 412.881 434.827 414.097 434.827C415.345 434.827 416.513 434.523 417.601 433.915C418.689 433.275 419.553 432.379 420.193 431.227C420.833 430.043 421.153 428.635 421.153 427.003ZM459.204 426.427C459.204 427.387 459.14 428.251 459.012 429.019H439.572C439.732 430.939 440.404 432.443 441.588 433.531C442.772 434.619 444.228 435.163 445.956 435.163C448.452 435.163 450.228 434.091 451.284 431.947H458.532C457.764 434.507 456.292 436.619 454.116 438.283C451.94 439.915 449.268 440.731 446.1 440.731C443.54 440.731 441.236 440.171 439.188 439.051C437.172 437.899 435.588 436.283 434.436 434.203C433.316 432.123 432.756 429.723 432.756 427.003C432.756 424.251 433.316 421.835 434.436 419.755C435.556 417.675 437.124 416.075 439.14 414.955C441.156 413.835 443.476 413.275 446.1 413.275C448.628 413.275 450.884 413.819 452.868 414.907C454.884 415.995 456.436 417.547 457.524 419.563C458.644 421.547 459.204 423.835 459.204 426.427ZM452.244 424.507C452.212 422.779 451.588 421.403 450.372 420.379C449.156 419.323 447.668 418.795 445.908 418.795C444.244 418.795 442.836 419.307 441.684 420.331C440.564 421.323 439.876 422.715 439.62 424.507H452.244Z" fill="#EFEFEF"/>
</g>
<defs>
<filter id="filter0_bii_20_306" x="-47.7333" y="-46.7333" width="751.467" height="1184.47" filterUnits="userSpaceOnUse" color-interpolation-filters="sRGB">
<feFlood flood-opacity="0" result="BackgroundImageFix"/>
<feGaussianBlur in="BackgroundImageFix" stdDeviation="23.8667"/>
<feComposite in2="SourceAlpha" operator="in" result="effect1_backgroundBlur_20_306"/>
<feBlend mode="normal" in="SourceGraphic" in2="effect1_backgroundBlur_20_306" result="shape"/>
<feColorMatrix in="SourceAlpha" type="matrix" values="0 0 0 0 0 0 0 0 0 0 0 0 0 0 0 0 0 0 127 0" result="hardAlpha"/>
<feOffset dx="-23.8667" dy="23.8667"/>
<feGaussianBlur stdDeviation="11.9333"/>
<feComposite in2="hardAlpha" operator="arithmetic" k2="-1" k3="1"/>
<feColorMatrix type="matrix" values="0 0 0 0 1 0 0 0 0 1 0 0 0 0 1 0 0 0 0.1 0"/>
<feBlend mode="normal" in2="shape" result="effect2_innerShadow_20_306"/>
<feColorMatrix in="SourceAlpha" type="matrix" values="0 0 0 0 0 0 0 0 0 0 0 0 0 0 0 0 0 0 127 0" result="hardAlpha"/>
<feOffset dx="23.8667" dy="-23.8667"/>
<feGaussianBlur stdDeviation="11.9333"/>
<feComposite in2="hardAlpha" operator="arithmetic" k2="-1" k3="1"/>
<feColorMatrix type="matrix" values="0 0 0 0 0.45302 0 0 0 0 0.649725 0 0 0 0 0.646745 0 0 0 0.1 0"/>
<feBlend mode="normal" in2="effect2_innerShadow_20_306" result="effect3_innerShadow_20_306"/>
</filter>
<linearGradient id="paint0_linear_20_306" x1="141" y1="574.958" x2="523.161" y2="573.616" gradientUnits="userSpaceOnUse">
<stop stop-color="#263238"/>
<stop offset="1" stop-color="#98DAD9"/>
</linearGradient>
<clipPath id="clip0_20_306">
<rect width="1440" height="1024" fill="white"/>
</clipPath>
</defs>
</svg>
