<svg width="271" height="524" viewBox="0 0 271 524" fill="none" xmlns="http://www.w3.org/2000/svg">
<path d="M243.903 0H27.1018C12.1339 0 0 12.4127 0 27.7244V495.944C0 511.255 12.1339 523.668 27.1018 523.668H243.903C258.871 523.668 271.005 511.255 271.005 495.944V27.7244C271.005 12.4127 258.871 0 243.903 0Z" fill="#263238"/>
<path d="M258.953 57.5036H12.0376V466.165H258.953V57.5036Z" fill="white" stroke="#263238" stroke-width="1.33739" stroke-miterlimit="10"/>
<path d="M173.347 222.982C194.247 201.601 194.247 166.936 173.347 145.555C152.446 124.173 118.558 124.173 97.6575 145.555C76.7566 166.936 76.7565 201.601 97.6575 222.982C118.558 244.363 152.446 244.363 173.347 222.982Z" fill="#98DAD9"/>
<path d="M205.768 440.466H65.2509C64.9347 440.468 64.6212 440.406 64.3285 440.284C64.0358 440.161 63.7697 439.981 63.5454 439.753C63.3212 439.524 63.1432 439.253 63.0217 438.955C62.9003 438.656 62.8378 438.336 62.8378 438.012C62.836 437.687 62.8971 437.366 63.0177 437.065C63.1383 436.765 63.316 436.492 63.5404 436.262C63.7649 436.033 64.0317 435.851 64.3253 435.728C64.6189 435.604 64.9335 435.542 65.2509 435.544H205.768C206.084 435.544 206.397 435.607 206.689 435.732C206.981 435.856 207.246 436.038 207.469 436.267C207.692 436.497 207.868 436.769 207.988 437.068C208.108 437.368 208.169 437.689 208.167 438.012C208.167 438.663 207.914 439.287 207.464 439.747C207.014 440.208 206.404 440.466 205.768 440.466Z" fill="#98DAD9"/>
<path d="M210.343 269.796H60.6618C57.5727 269.796 55.0685 272.358 55.0685 275.518V293.568C55.0685 296.728 57.5727 299.29 60.6618 299.29H210.343C213.432 299.29 215.936 296.728 215.936 293.568V275.518C215.936 272.358 213.432 269.796 210.343 269.796Z" fill="#98DAD9"/>
<path d="M210.343 324.96H60.6618C57.5727 324.96 55.0685 327.521 55.0685 330.682V348.732C55.0685 351.892 57.5727 354.453 60.6618 354.453H210.343C213.432 354.453 215.936 351.892 215.936 348.732V330.682C215.936 327.521 213.432 324.96 210.343 324.96Z" fill="#98DAD9"/>
<path d="M162.151 211.579L146.403 202.304V194.642C148.683 191.82 150.335 188.523 151.243 184.982C151.785 185.179 152.356 185.28 152.931 185.282C154.884 185.282 156.125 179.089 156.334 174.665C158.608 169.743 155.511 166.86 155.511 166.86C155.511 166.86 156.795 165.548 157.646 160.282C158.496 155.017 154.647 157.215 151.648 152.392C148.649 147.569 146.501 142.318 136.653 142.318C133.94 142.227 131.262 142.973 128.969 144.459C126.675 145.945 124.872 148.102 123.793 150.651C121.341 150.66 118.899 150.952 116.512 151.521C113.499 152.392 112.648 162.48 115.214 166.432C116.363 168.592 116.976 171.008 117 173.467C116.316 172.611 115.605 172.382 115.214 174.323C114.363 178.704 117.795 184.839 117.795 184.839L119.566 184.325C120.459 188.11 122.18 191.638 124.602 194.642V202.304L108.854 211.579C107.015 212.665 105.487 214.227 104.425 216.108C103.362 217.989 102.802 220.123 102.8 222.295V227.603C112.166 235.005 123.667 239.02 135.502 239.02C147.338 239.02 158.839 235.005 168.204 227.603V222.295C168.206 220.122 167.646 217.987 166.584 216.106C165.521 214.224 163.992 212.663 162.151 211.579Z" fill="#263238"/>
<path d="M75.4473 347.119C75.0862 347.114 74.7412 346.966 74.4848 346.705C74.3476 346.58 74.238 346.426 74.1635 346.254C74.0889 346.081 74.0511 345.895 74.0524 345.707C74.0567 345.449 74.129 345.198 74.2616 344.979L76.7724 340.869L71.8765 341.026C71.692 341.038 71.5071 341.01 71.334 340.944C71.161 340.877 71.0036 340.774 70.8722 340.641C70.6447 340.38 70.519 340.042 70.519 339.692C70.519 339.342 70.6447 339.005 70.8722 338.743C71.0007 338.606 71.1572 338.498 71.3308 338.429C71.5044 338.36 71.6907 338.331 71.8765 338.344L76.7026 338.529L74.2198 334.434C74.0847 334.211 74.0123 333.955 74.0106 333.692C74.0092 333.504 74.0471 333.317 74.1216 333.145C74.1962 332.973 74.3057 332.819 74.443 332.693C74.6993 332.433 75.0443 332.285 75.4054 332.28C75.6431 332.281 75.8754 332.352 76.0754 332.483C76.2754 332.614 76.4349 332.801 76.5352 333.022L78.9204 337.431L81.2777 333.05C81.3895 332.816 81.5617 332.618 81.7756 332.478C81.9895 332.337 82.237 332.258 82.4912 332.251C82.6675 332.252 82.8417 332.291 83.0026 332.364C83.1635 332.438 83.3076 332.545 83.4258 332.679C83.6818 332.951 83.8222 333.315 83.8163 333.692C83.8156 333.937 83.7532 334.178 83.635 334.391L81.1103 338.529L86.0062 338.344C86.192 338.331 86.3783 338.36 86.5519 338.429C86.7255 338.498 86.882 338.606 87.0105 338.743C87.2483 338.996 87.3787 339.335 87.3732 339.685C87.3723 340.039 87.2431 340.379 87.0105 340.641C86.8791 340.774 86.7217 340.877 86.5487 340.944C86.3756 341.01 86.1907 341.038 86.0062 341.026L81.0824 340.869L83.5374 344.936C83.6749 345.163 83.7474 345.425 83.7466 345.692C83.7466 346.071 83.5996 346.434 83.338 346.701C83.0765 346.969 82.7217 347.119 82.3517 347.119C82.1126 347.116 81.8796 347.041 81.6813 346.904C81.4831 346.768 81.3283 346.574 81.2359 346.349L78.9065 342.068L76.591 346.349C76.4883 346.573 76.3271 346.763 76.1253 346.899C75.9235 347.035 75.6888 347.111 75.4473 347.119Z" fill="#263238"/>
<path d="M98.0715 347.119C97.7105 347.114 97.3654 346.966 97.1091 346.705C96.9718 346.58 96.8623 346.426 96.7878 346.254C96.7132 346.081 96.6753 345.895 96.6767 345.707C96.681 345.449 96.7533 345.198 96.8859 344.979L99.3966 340.869L94.5147 341.026C94.3284 341.035 94.1423 341.006 93.9674 340.939C93.7925 340.873 93.6324 340.772 93.4964 340.641C93.3113 340.446 93.1879 340.198 93.1424 339.93C93.0968 339.662 93.1312 339.386 93.2411 339.138C93.3509 338.89 93.5311 338.682 93.7583 338.54C93.9854 338.399 94.249 338.33 94.5147 338.344L99.3269 338.529L96.8441 334.434C96.709 334.211 96.6366 333.955 96.6348 333.692C96.6335 333.504 96.6714 333.317 96.7459 333.145C96.8205 332.973 96.93 332.819 97.0672 332.693C97.3236 332.433 97.6686 332.285 98.0297 332.28C98.2674 332.281 98.4997 332.352 98.6997 332.483C98.8997 332.614 99.0592 332.801 99.1595 333.022L101.545 337.431L103.902 333.05C104.014 332.816 104.186 332.618 104.4 332.478C104.614 332.337 104.861 332.258 105.116 332.251C105.292 332.25 105.467 332.288 105.628 332.362C105.789 332.436 105.933 332.544 106.05 332.679C106.179 332.813 106.282 332.971 106.351 333.144C106.42 333.318 106.456 333.504 106.455 333.692C106.45 333.939 106.382 334.18 106.259 334.391L103.735 338.529L108.644 338.372C108.828 338.36 109.012 338.389 109.184 338.458C109.355 338.527 109.509 338.634 109.635 338.772C109.873 339.025 110.003 339.363 109.997 339.714C109.997 340.067 109.867 340.408 109.635 340.67C109.506 340.802 109.351 340.905 109.18 340.972C109.01 341.038 108.827 341.067 108.644 341.055L103.707 340.898L106.162 344.965C106.299 345.192 106.372 345.454 106.371 345.721C106.371 346.099 106.224 346.462 105.962 346.73C105.701 346.997 105.346 347.148 104.976 347.148C104.737 347.145 104.504 347.07 104.306 346.933C104.107 346.796 103.953 346.603 103.86 346.377L101.531 342.097L99.2153 346.377C99.1087 346.596 98.9459 346.78 98.7443 346.911C98.5428 347.042 98.3101 347.114 98.0715 347.119Z" fill="#263238"/>
<path d="M120.71 347.119C120.344 347.118 119.993 346.969 119.734 346.705C119.596 346.58 119.487 346.426 119.412 346.254C119.338 346.081 119.3 345.895 119.301 345.707C119.305 345.449 119.378 345.198 119.51 344.979L122.021 340.869L117.139 341.026C116.876 341.037 116.616 340.968 116.392 340.827C116.168 340.686 115.99 340.48 115.881 340.235C115.772 339.99 115.736 339.717 115.779 339.452C115.822 339.186 115.941 338.94 116.121 338.743C116.253 338.606 116.412 338.499 116.588 338.43C116.763 338.361 116.951 338.332 117.139 338.344L121.951 338.529L119.469 334.434C119.333 334.211 119.261 333.955 119.259 333.692C119.264 333.505 119.304 333.32 119.378 333.149C119.453 332.977 119.559 332.823 119.692 332.693C119.952 332.43 120.302 332.281 120.668 332.28C120.903 332.284 121.133 332.356 121.33 332.487C121.527 332.618 121.685 332.803 121.784 333.022L124.169 337.431L126.527 333.05C126.638 332.816 126.81 332.618 127.024 332.478C127.238 332.337 127.486 332.258 127.74 332.251C127.917 332.25 128.091 332.288 128.252 332.362C128.414 332.436 128.558 332.544 128.675 332.679C128.804 332.813 128.906 332.971 128.976 333.144C129.045 333.318 129.08 333.504 129.079 333.692C129.074 333.939 129.007 334.18 128.884 334.391L126.359 338.529L131.269 338.344C131.449 338.325 131.632 338.347 131.804 338.406C131.975 338.466 132.133 338.563 132.265 338.69C132.397 338.817 132.501 338.972 132.57 339.143C132.639 339.315 132.671 339.5 132.664 339.685C132.667 340.037 132.543 340.377 132.315 340.641C132.184 340.774 132.026 340.877 131.853 340.944C131.68 341.01 131.495 341.038 131.311 341.026L126.387 340.869L128.828 344.936C128.966 345.163 129.038 345.425 129.037 345.692C129.033 345.88 128.992 346.064 128.918 346.236C128.844 346.407 128.737 346.562 128.605 346.691C128.483 346.825 128.337 346.932 128.174 347.005C128.011 347.079 127.835 347.118 127.656 347.119C127.419 347.115 127.188 347.04 126.992 346.903C126.797 346.766 126.644 346.573 126.554 346.349L124.211 342.068L121.896 346.349C121.791 346.58 121.624 346.776 121.414 346.912C121.203 347.049 120.959 347.121 120.71 347.119Z" fill="#263238"/>
<path d="M143.334 347.119C142.968 347.118 142.618 346.969 142.358 346.705C142.095 346.442 141.945 346.083 141.94 345.707C141.935 345.45 142.003 345.197 142.135 344.979L144.646 340.869L139.764 341.026C139.577 341.035 139.391 341.006 139.216 340.939C139.041 340.873 138.881 340.772 138.745 340.641C138.518 340.38 138.392 340.042 138.392 339.692C138.392 339.342 138.518 339.005 138.745 338.743C138.88 338.61 139.04 338.506 139.215 338.438C139.39 338.369 139.576 338.337 139.764 338.344L144.59 338.529L142.121 334.434C141.986 334.211 141.913 333.955 141.912 333.692C141.916 333.505 141.957 333.32 142.031 333.149C142.105 332.977 142.211 332.823 142.344 332.693C142.604 332.43 142.954 332.281 143.32 332.28C143.558 332.281 143.79 332.352 143.99 332.483C144.19 332.614 144.35 332.801 144.45 333.022L146.821 337.431L149.179 333.05C149.291 332.816 149.463 332.618 149.677 332.478C149.891 332.337 150.138 332.258 150.392 332.251C150.569 332.25 150.744 332.288 150.905 332.362C151.066 332.436 151.21 332.544 151.327 332.679C151.456 332.813 151.558 332.971 151.628 333.144C151.697 333.318 151.732 333.504 151.731 333.692C151.726 333.939 151.659 334.18 151.536 334.391L149.011 338.529L153.921 338.344C154.102 338.325 154.284 338.347 154.456 338.406C154.628 338.466 154.785 338.563 154.917 338.69C155.049 338.817 155.153 338.972 155.222 339.143C155.291 339.315 155.323 339.5 155.316 339.685C155.319 340.037 155.195 340.377 154.967 340.641C154.836 340.774 154.679 340.877 154.506 340.944C154.332 341.01 154.148 341.038 153.963 341.026L149.039 340.869L151.48 344.936C151.618 345.163 151.69 345.425 151.689 345.692C151.691 345.881 151.653 346.067 151.578 346.239C151.504 346.412 151.394 346.566 151.257 346.691C151.136 346.825 150.989 346.932 150.826 347.005C150.663 347.079 150.487 347.118 150.309 347.119C150.071 347.115 149.841 347.04 149.645 346.903C149.449 346.766 149.297 346.573 149.207 346.349L146.863 342.068L144.548 346.349C144.441 346.585 144.27 346.783 144.054 346.92C143.838 347.057 143.588 347.126 143.334 347.119Z" fill="#263238"/>
<path d="M165.959 347.119C165.593 347.118 165.242 346.969 164.982 346.705C164.766 346.482 164.629 346.191 164.591 345.879C164.553 345.566 164.617 345.25 164.773 344.979L167.27 340.87L162.388 341.026C162.202 341.035 162.016 341.006 161.841 340.939C161.666 340.873 161.506 340.772 161.37 340.641C161.142 340.38 161.017 340.042 161.017 339.692C161.017 339.342 161.142 339.005 161.37 338.743C161.504 338.61 161.664 338.506 161.839 338.438C162.014 338.369 162.201 338.337 162.388 338.344L167.214 338.529L164.731 334.434C164.596 334.211 164.524 333.955 164.522 333.692C164.527 333.316 164.678 332.957 164.94 332.693C165.2 332.43 165.551 332.281 165.917 332.28C166.155 332.281 166.387 332.352 166.587 332.483C166.787 332.614 166.946 332.801 167.047 333.022L169.418 337.431L171.775 333.05C171.887 332.816 172.059 332.618 172.273 332.478C172.487 332.337 172.735 332.258 172.989 332.251C173.167 332.25 173.344 332.288 173.508 332.362C173.671 332.435 173.818 332.544 173.937 332.679C174.193 332.951 174.334 333.315 174.328 333.692C174.323 333.939 174.256 334.18 174.133 334.391L171.608 338.529L176.518 338.344C176.698 338.325 176.881 338.347 177.052 338.406C177.224 338.466 177.381 338.563 177.514 338.69C177.646 338.817 177.75 338.972 177.819 339.143C177.887 339.315 177.919 339.5 177.913 339.685C177.916 340.037 177.791 340.377 177.564 340.641C177.432 340.774 177.275 340.877 177.102 340.944C176.929 341.01 176.744 341.038 176.56 341.026L171.636 340.87L174.077 344.936C174.214 345.163 174.287 345.425 174.286 345.692C174.287 345.881 174.249 346.067 174.175 346.239C174.1 346.412 173.991 346.566 173.854 346.691C173.732 346.825 173.586 346.932 173.422 347.005C173.259 347.079 173.083 347.118 172.905 347.119C172.668 347.115 172.437 347.04 172.241 346.903C172.045 346.766 171.893 346.573 171.803 346.349L169.46 342.068L167.144 346.349C167.04 346.58 166.873 346.776 166.662 346.912C166.452 347.049 166.208 347.121 165.959 347.119Z" fill="#263238"/>
<path d="M188.583 347.119C188.222 347.114 187.877 346.966 187.621 346.705C187.484 346.58 187.374 346.426 187.299 346.254C187.225 346.081 187.187 345.895 187.188 345.707C187.193 345.449 187.265 345.198 187.398 344.979L189.894 340.87L185.012 341.026C184.833 341.04 184.652 341.016 184.483 340.954C184.313 340.893 184.157 340.796 184.026 340.67C183.895 340.544 183.791 340.391 183.721 340.222C183.65 340.052 183.615 339.869 183.618 339.685C183.617 339.511 183.649 339.338 183.714 339.176C183.779 339.014 183.874 338.867 183.994 338.743C184.123 338.606 184.279 338.498 184.453 338.429C184.626 338.36 184.813 338.331 184.998 338.344L189.825 338.529L187.342 334.434C187.207 334.211 187.134 333.955 187.133 333.692C187.138 333.316 187.288 332.957 187.551 332.693C187.811 332.43 188.161 332.281 188.527 332.28C188.765 332.281 188.997 332.352 189.197 332.483C189.397 332.614 189.557 332.801 189.657 333.022L192.028 337.431L194.4 333.05C194.51 332.819 194.68 332.622 194.892 332.481C195.103 332.341 195.347 332.261 195.599 332.251C195.778 332.25 195.955 332.288 196.118 332.362C196.282 332.435 196.428 332.544 196.548 332.679C196.804 332.951 196.944 333.315 196.938 333.692C196.938 333.937 196.875 334.178 196.757 334.391L194.232 338.529L199.128 338.344C199.314 338.331 199.5 338.36 199.674 338.429C199.847 338.498 200.004 338.606 200.133 338.743C200.37 338.996 200.501 339.335 200.495 339.685C200.494 340.039 200.365 340.38 200.133 340.641C200.001 340.774 199.844 340.877 199.671 340.944C199.498 341.01 199.313 341.038 199.128 341.026L194.204 340.87L196.645 344.936C196.783 345.163 196.855 345.425 196.855 345.692C196.849 346.069 196.699 346.428 196.436 346.691C196.182 346.957 195.837 347.11 195.474 347.119C195.237 347.115 195.006 347.04 194.81 346.903C194.614 346.766 194.462 346.573 194.372 346.349L192.028 342.068L189.713 346.349C189.613 346.571 189.454 346.761 189.255 346.897C189.055 347.033 188.823 347.11 188.583 347.119Z" fill="#263238"/>
<g style="mix-blend-mode:multiply">
<path d="M258.953 58.0459H12.0376V73.87H258.953V58.0459Z" fill="#98DAD9"/>
</g>
<path d="M162.346 28.8945H108.645C107.675 28.8945 106.746 28.5006 106.06 27.7995C105.375 27.0984 104.99 26.1475 104.99 25.1561C104.99 24.1646 105.375 23.2137 106.06 22.5126C106.746 21.8115 107.675 21.4176 108.645 21.4176H162.346C163.315 21.4176 164.245 21.8115 164.93 22.5126C165.616 23.2137 166.001 24.1646 166.001 25.1561C166.001 26.1475 165.616 27.0984 164.93 27.7995C164.245 28.5006 163.315 28.8945 162.346 28.8945Z" fill="#98DAD9" stroke="#263238" stroke-width="1.33739" stroke-linecap="round" stroke-linejoin="round"/>
<path d="M150.141 489.252C150.144 486.287 149.287 483.388 147.679 480.922C146.071 478.456 143.783 476.534 141.107 475.398C138.43 474.262 135.484 473.965 132.642 474.542C129.799 475.12 127.188 476.547 125.139 478.643C123.09 480.739 121.695 483.41 121.13 486.318C120.566 489.226 120.857 492.239 121.967 494.977C123.077 497.716 124.957 500.055 127.367 501.701C129.778 503.346 132.611 504.222 135.509 504.22C139.389 504.216 143.108 502.638 145.852 499.831C148.595 497.025 150.138 493.22 150.141 489.252Z" fill="#98DAD9"/>
<path d="M142.93 481.661H128.089V496.843H142.93V481.661Z" fill="#98DAD9" stroke="#263238" stroke-width="1.33739" stroke-linecap="round" stroke-linejoin="round"/>
</svg>
